# Blender v2.74 (sub 0) OBJ File: 'breakableTemp.blend'
# www.blender.org
o Sphere
v 0.922975 -0.012740 -0.385151
v 0.905223 0.055542 -0.377798
v 0.979881 0.055542 -0.002467
v 0.512376 0.278275 -0.215075
v 0.554666 0.278275 -0.002467
v 0.706203 0.234748 -0.002467
v 0.767274 0.181710 -0.320657
v 0.652377 0.234748 -0.273065
v 0.830565 0.181710 -0.002467
v 0.922975 0.121200 -0.002467
v 0.179336 0.330535 -0.077125
v 0.194186 0.330535 -0.002467
v 0.381779 0.310618 -0.002467
v 0.352649 0.310618 -0.148914
v 0.706203 -0.012740 -0.709574
v 0.692616 0.055542 -0.695987
v 0.269694 0.310618 -0.273066
v 0.137046 0.330535 -0.140417
v 0.391944 0.278275 -0.395315
v 0.652378 0.121200 -0.655749
v 0.587034 0.181710 -0.590405
v 0.852649 0.121200 -0.356021
v 0.499096 0.234748 -0.502467
v 0.073754 0.330535 -0.182708
v 0.317286 0.181710 -0.770645
v 0.211703 0.278275 -0.515748
v 0.145543 0.310618 -0.356021
v 0.269694 0.234748 -0.655749
v 0.381779 -0.012740 -0.926347
v 0.374426 0.055542 -0.908595
v 0.352649 0.121200 -0.856021
v -0.000904 0.278275 -0.558038
v -0.000904 0.055542 -0.983253
v -0.000904 0.310618 -0.385151
v -0.000904 0.181710 -0.833937
v -0.000904 0.234748 -0.709574
v -0.000904 0.121200 -0.926347
v -0.000904 0.330535 -0.197558
v -0.147351 0.310618 -0.356021
v -0.075562 0.330535 -0.182708
v -0.319094 0.181710 -0.770645
v -0.271502 0.234748 -0.655749
v -0.383588 -0.012740 -0.926347
v -0.376235 0.055542 -0.908595
v -0.354458 0.121200 -0.856021
v -0.213512 0.278275 -0.515748
v -0.138854 0.330535 -0.140417
v -0.588842 0.181710 -0.590405
v -0.500905 0.234748 -0.502468
v -0.708011 -0.012740 -0.709574
v -0.694424 0.055542 -0.695988
v -0.271503 0.310618 -0.273066
v -0.393752 0.278275 -0.395315
v -0.654186 0.121200 -0.655749
v -0.514185 0.278275 -0.215075
v -0.769082 0.181710 -0.320657
v -0.181145 0.330535 -0.077125
v -0.907032 0.055542 -0.377798
v -0.354458 0.310618 -0.148914
v -0.854458 0.121200 -0.356021
v -0.383588 0.310618 -0.002467
v -0.924784 0.121200 -0.002467
v -0.195995 0.330535 -0.002467
v -0.832374 0.181710 -0.002467
v -0.708011 0.234748 -0.002467
v -0.556475 0.278275 -0.002467
v -0.981690 0.055542 -0.002467
v -0.924784 -0.012740 -0.385151
v -0.654186 0.234748 -0.273066
v 0.999096 -0.012740 -0.002467
v 0.905223 0.055541 0.372863
v 0.352649 0.310618 0.143979
v 0.512376 0.278274 0.210140
v 0.179336 0.330535 0.072191
v 0.767273 0.181709 0.315723
v 0.852649 0.121199 0.351086
v 0.652377 0.234747 0.268131
v 0.269694 0.310617 0.268131
v 0.391943 0.278274 0.390380
v 0.137046 0.330535 0.135483
v 0.499096 0.234747 0.497533
v 0.652377 0.121199 0.650814
v 0.692615 0.055541 0.691053
v 0.922975 -0.012741 0.380216
v 0.587033 0.181709 0.585471
v 0.145542 0.310617 0.351086
v 0.211703 0.278274 0.510813
v 0.073754 0.330535 0.177773
v 0.269694 0.234747 0.650814
v 0.352649 0.121199 0.851086
v 0.374426 0.055541 0.903660
v 0.706202 -0.012741 0.704640
v 0.317285 0.181709 0.765711
v -0.000904 0.310617 0.380216
v -0.000905 0.278274 0.553103
v -0.000904 0.330534 0.192623
v -0.000905 0.234747 0.704639
v -0.000905 0.121199 0.921412
v -0.000905 0.055541 0.978318
v 0.381779 -0.012741 0.921412
v -0.000905 0.181709 0.829002
v -0.147351 0.310617 0.351086
v -0.075562 0.330535 0.177773
v -0.271503 0.234747 0.650814
v -0.213512 0.278274 0.510813
v -0.354458 0.121199 0.851086
v -0.376235 0.055541 0.903660
v -0.000905 -0.012741 0.997533
v -0.319094 0.181709 0.765710
v -0.271503 0.310617 0.268131
v -0.393752 0.278274 0.390380
v -0.138854 0.330535 0.135482
v -0.500904 0.234747 0.497532
v -0.654186 0.121199 0.650814
v -0.694424 0.055541 0.691052
v -0.383588 -0.012741 0.921412
v -0.588842 0.181709 0.585470
v -0.354458 0.310618 0.143979
v -0.181145 0.330535 0.072190
v -0.654186 0.234747 0.268130
v -0.514185 0.278274 0.210140
v -0.854458 0.121199 0.351086
v -0.907032 0.055541 0.372862
v -0.708012 -0.012741 0.704639
v -0.769082 0.181709 0.315722
v -0.000905 0.337260 -0.002467
v -0.924784 -0.012741 0.380216
v -0.000904 -0.012740 -1.002468
v -1.000905 -0.012740 -0.002467
vt 0.587305 0.104491
vt 0.583067 0.112925
vt 0.411812 0.112925
vt 0.537590 0.299558
vt 0.440582 0.299558
vt 0.428985 0.233047
vt 0.565300 0.178461
vt 0.552453 0.233047
vt 0.420116 0.178461
vt 0.414317 0.137901
vt 0.504159 0.457778
vt 0.470094 0.457778
vt 0.454464 0.375440
vt 0.521284 0.375440
vt 0.748625 0.171312
vt 0.741287 0.178461
vt 0.583018 0.401011
vt 0.535631 0.470813
vt 0.627215 0.336681
vt 0.724677 0.199636
vt 0.699432 0.234021
vt 0.575636 0.137901
vt 0.666523 0.280296
vt 0.559719 0.494901
vt 0.802092 0.336681
vt 0.695811 0.405277
vt 0.630268 0.448260
vt 0.753829 0.367601
vt 0.872093 0.294780
vt 0.862383 0.299558
vt 0.838747 0.313706
vt 0.732934 0.494901
vt 0.927920 0.457778
vt 0.655839 0.509995
vt 0.857652 0.470813
vt 0.801078 0.481671
vt 0.900481 0.462745
vt 0.572754 0.526373
vt 0.655839 0.576816
vt 0.572754 0.560438
vt 0.857652 0.615997
vt 0.801078 0.605140
vt 0.938914 0.630711
vt 0.927919 0.629033
vt 0.900481 0.624065
vt 0.732934 0.591910
vt 0.559719 0.591910
vt 0.802092 0.750130
vt 0.753829 0.719210
vt 0.872093 0.792030
vt 0.862383 0.787253
vt 0.630268 0.638550
vt 0.695811 0.681534
vt 0.838747 0.773105
vt 0.627215 0.750130
vt 0.699432 0.852790
vt 0.535631 0.615997
vt 0.741287 0.908350
vt 0.583018 0.685800
vt 0.724677 0.887175
vt 0.521284 0.711371
vt 0.575637 0.948910
vt 0.504159 0.629033
vt 0.565300 0.908350
vt 0.552453 0.853764
vt 0.537591 0.787253
vt 0.583067 0.973886
vt 0.748625 0.915499
vt 0.666523 0.806515
vt 0.412695 0.104491
vt 0.253592 0.178461
vt 0.392729 0.401011
vt 0.350958 0.336681
vt 0.438622 0.470813
vt 0.285984 0.234021
vt 0.265277 0.199636
vt 0.314914 0.280296
vt 0.345479 0.448261
vt 0.282363 0.405277
vt 0.414535 0.494901
vt 0.227609 0.367601
vt 0.151207 0.313706
vt 0.132495 0.299558
vt 0.251375 0.171312
vt 0.183323 0.336681
vt 0.319908 0.509995
vt 0.245239 0.494901
vt 0.401499 0.526373
vt 0.180360 0.481671
vt 0.089473 0.462746
vt 0.066958 0.457778
vt 0.127906 0.294781
vt 0.127764 0.470813
vt 0.319908 0.576816
vt 0.245239 0.591910
vt 0.401499 0.560438
vt 0.180360 0.605140
vt 0.089473 0.624066
vt 0.066959 0.629033
vt 0.061086 0.456100
vt 0.127764 0.615997
vt 0.345479 0.638550
vt 0.414535 0.591910
vt 0.227609 0.719210
vt 0.282363 0.681534
vt 0.151208 0.773105
vt 0.132495 0.787253
vt 0.061086 0.630711
vt 0.183323 0.750130
vt 0.392729 0.685800
vt 0.350958 0.750130
vt 0.438622 0.615997
vt 0.314915 0.806515
vt 0.265278 0.887175
vt 0.253592 0.908350
vt 0.127907 0.792031
vt 0.285985 0.852790
vt 0.454464 0.711371
vt 0.470094 0.629033
vt 0.428985 0.853764
vt 0.440582 0.787253
vt 0.414318 0.948910
vt 0.411812 0.973886
vt 0.251375 0.915499
vt 0.420117 0.908350
vt 0.486875 0.543405
vt 0.412695 0.982320
vt 0.938914 0.456100
vt 0.587305 0.982320
vn 0.945400 0.266000 -0.188100
vn 0.945400 0.266100 -0.188100
vn 0.275700 0.959700 -0.054800
vn 0.391100 0.917100 -0.077800
vn 0.544600 0.831700 -0.108300
vn 0.105600 0.994200 -0.021000
vn 0.183800 0.982300 -0.036600
vn 0.801500 0.266000 -0.535500
vn 0.089500 0.994200 -0.059800
vn 0.233700 0.959700 -0.156100
vn 0.461700 0.831700 -0.308500
vn 0.633500 0.647700 -0.423300
vn 0.331600 0.917100 -0.221500
vn 0.059800 0.994200 -0.089500
vn 0.308500 0.831700 -0.461700
vn 0.156100 0.959700 -0.233700
vn 0.104100 0.982300 -0.155800
vn 0.221500 0.917100 -0.331600
vn 0.535500 0.266000 -0.801500
vn 0.535500 0.266100 -0.801500
vn 0.423300 0.647700 -0.633500
vn 0.054800 0.959700 -0.275700
vn 0.188100 0.266100 -0.945400
vn 0.188100 0.266000 -0.945400
vn 0.036600 0.982300 -0.183800
vn 0.108300 0.831700 -0.544600
vn 0.077800 0.917100 -0.391100
vn 0.148600 0.647700 -0.747300
vn 0.021000 0.994200 -0.105600
vn -0.021000 0.994200 -0.105600
vn -0.077800 0.917100 -0.391100
vn -0.188100 0.266000 -0.945400
vn -0.188100 0.266100 -0.945400
vn -0.108300 0.831700 -0.544600
vn -0.148600 0.647700 -0.747300
vn -0.036600 0.982300 -0.183800
vn -0.054800 0.959700 -0.275700
vn -0.059800 0.994200 -0.089500
vn -0.308500 0.831700 -0.461700
vn -0.221500 0.917100 -0.331600
vn -0.535500 0.266000 -0.801500
vn -0.104100 0.982300 -0.155800
vn -0.156100 0.959700 -0.233700
vn -0.423300 0.647700 -0.633500
vn -0.233700 0.959700 -0.156100
vn -0.461700 0.831700 -0.308500
vn -0.089500 0.994200 -0.059800
vn -0.801500 0.266000 -0.535500
vn -0.155800 0.982300 -0.104100
vn -0.633500 0.647700 -0.423300
vn -0.183800 0.982300 -0.036600
vn -0.747300 0.647700 -0.148600
vn -0.105600 0.994200 -0.021000
vn -0.544600 0.831700 -0.108300
vn -0.275700 0.959700 -0.054800
vn -0.945400 0.266100 -0.188100
vn -0.945400 0.266000 -0.188100
vn 0.747300 0.647700 -0.148600
vn 0.155800 0.982300 -0.104100
vn -0.331600 0.917100 -0.221500
vn -0.391100 0.917100 -0.077800
vn 0.945400 0.266100 0.188100
vn 0.945400 0.266000 0.188100
vn 0.183800 0.982300 0.036600
vn 0.105600 0.994200 0.021000
vn 0.544600 0.831700 0.108300
vn 0.275700 0.959700 0.054800
vn 0.391100 0.917100 0.077800
vn 0.747300 0.647700 0.148600
vn 0.155800 0.982300 0.104100
vn 0.089500 0.994200 0.059800
vn 0.331600 0.917100 0.221500
vn 0.233700 0.959700 0.156100
vn 0.633500 0.647700 0.423300
vn 0.801500 0.266000 0.535500
vn 0.801500 0.266100 0.535500
vn 0.461700 0.831700 0.308500
vn 0.104100 0.982300 0.155800
vn 0.059800 0.994200 0.089500
vn 0.221500 0.917100 0.331600
vn 0.156100 0.959700 0.233700
vn 0.423300 0.647700 0.633500
vn 0.535500 0.266100 0.801500
vn 0.535500 0.266000 0.801500
vn 0.308500 0.831700 0.461700
vn 0.036600 0.982300 0.183800
vn 0.021000 0.994200 0.105600
vn 0.077800 0.917100 0.391100
vn 0.054800 0.959700 0.275700
vn 0.148600 0.647700 0.747300
vn 0.188100 0.266000 0.945400
vn 0.188100 0.266100 0.945400
vn 0.108300 0.831700 0.544600
vn -0.036600 0.982300 0.183800
vn -0.021000 0.994200 0.105600
vn -0.077800 0.917100 0.391100
vn -0.054800 0.959700 0.275700
vn -0.148600 0.647700 0.747300
vn -0.188100 0.266100 0.945400
vn -0.188100 0.266000 0.945400
vn -0.108300 0.831700 0.544600
vn -0.104100 0.982300 0.155800
vn -0.059800 0.994200 0.089500
vn -0.221500 0.917100 0.331600
vn -0.156100 0.959700 0.233700
vn -0.423300 0.647700 0.633500
vn -0.535500 0.266000 0.801500
vn -0.535500 0.266100 0.801500
vn -0.308500 0.831700 0.461700
vn -0.155800 0.982300 0.104100
vn -0.089500 0.994200 0.059800
vn -0.331600 0.917100 0.221500
vn -0.233700 0.959700 0.156100
vn -0.633500 0.647700 0.423300
vn -0.801500 0.266100 0.535500
vn -0.461700 0.831700 0.308500
vn 0.034400 0.999400 -0.006900
vn 0.029200 0.999400 -0.019500
vn -0.006900 0.999400 -0.034400
vn -0.019500 0.999400 -0.029200
vn -0.029200 0.999400 -0.019500
vn -0.034500 0.999400 -0.006900
vn 0.019500 0.999400 -0.029200
vn 0.006900 0.999400 -0.034400
vn 0.034400 0.999400 0.006900
vn 0.029200 0.999400 0.019500
vn 0.019500 0.999400 0.029200
vn 0.006900 0.999400 0.034500
vn -0.006900 0.999400 0.034500
vn -0.019500 0.999400 0.029200
vn -0.029200 0.999400 0.019500
vn -0.183800 0.982300 0.036600
vn -0.105600 0.994200 0.021000
vn -0.391100 0.917100 0.077800
vn -0.275700 0.959700 0.054800
vn -0.034500 0.999400 0.006900
vn -0.747300 0.647700 0.148600
vn -0.945400 0.266000 0.188100
vn -0.945400 0.266100 0.188100
vn -0.544600 0.831700 0.108300
s 1
f 1/1/1 2/2/1 3/3/2
f 4/4/3 5/5/3 6/6/3
f 7/7/4 8/8/4 6/6/4
f 7/7/5 9/9/5 10/10/5
f 11/11/6 12/12/6 13/13/6
f 14/14/7 13/13/7 5/5/7
f 15/15/8 16/16/8 2/2/8
f 17/17/9 18/18/9 11/11/9
f 19/19/10 4/4/10 8/8/10
f 20/20/11 21/21/11 7/7/11
f 20/20/12 22/22/12 2/2/12
f 23/23/13 8/8/13 7/7/13
f 24/24/14 18/18/14 17/17/14
f 25/25/15 21/21/15 20/20/15
f 26/26/16 19/19/16 23/23/16
f 26/26/17 27/27/17 17/17/17
f 28/28/18 23/23/18 21/21/18
f 29/29/19 30/30/19 16/16/20
f 31/31/21 20/20/21 16/16/21
f 32/32/22 26/26/22 28/28/22
f 33/33/23 30/30/24 29/29/24
f 34/34/25 27/27/25 26/26/25
f 35/35/26 25/25/26 31/31/26
f 35/35/27 36/36/27 28/28/27
f 37/37/28 31/31/28 30/30/28
f 38/38/29 24/24/29 27/27/29
f 39/39/30 40/40/30 38/38/30
f 41/41/31 42/42/31 36/36/31
f 43/43/32 44/44/32 33/33/33
f 41/41/34 35/35/34 37/37/34
f 45/45/35 37/37/35 33/33/35
f 46/46/36 39/39/36 34/34/36
f 46/46/37 32/32/37 36/36/37
f 47/47/38 40/40/38 39/39/38
f 48/48/39 41/41/39 45/45/39
f 49/49/40 42/42/40 41/41/40
f 50/50/41 51/51/41 44/44/41
f 52/52/42 39/39/42 46/46/42
f 53/53/43 46/46/43 42/42/43
f 54/54/44 45/45/44 44/44/44
f 55/55/45 53/53/45 49/49/45
f 56/56/46 48/48/46 54/54/46
f 57/57/47 47/47/47 52/52/47
f 58/58/48 51/51/48 50/50/48
f 59/59/49 52/52/49 53/53/49
f 58/58/50 60/60/50 54/54/50
f 61/61/51 59/59/51 55/55/51
f 62/62/52 60/60/52 58/58/52
f 63/63/53 57/57/53 59/59/53
f 64/64/54 56/56/54 60/60/54
f 65/65/55 66/66/55 55/55/55
f 67/67/56 58/58/57 68/68/57
f 22/22/58 10/10/58 3/3/58
f 17/17/59 14/14/59 4/4/59
f 56/56/60 69/69/60 49/49/60
f 64/64/61 65/65/61 69/69/61
f 70/70/62 3/3/62 71/71/63
f 13/13/64 72/72/64 73/73/64
f 12/12/65 74/74/65 72/72/65
f 9/9/66 75/75/66 76/76/66
f 5/5/67 73/73/67 77/77/67
f 9/9/68 6/6/68 77/77/68
f 10/10/69 76/76/69 71/71/69
f 72/72/70 78/78/70 79/79/70
f 74/74/71 80/80/71 78/78/71
f 75/75/72 77/77/72 81/81/72
f 73/73/73 79/79/73 81/81/73
f 76/76/74 82/82/74 83/83/74
f 84/84/75 71/71/75 83/83/76
f 75/75/77 85/85/77 82/82/77
f 78/78/78 86/86/78 87/87/78
f 80/80/79 88/88/79 86/86/79
f 85/85/80 81/81/80 89/89/80
f 79/79/81 87/87/81 89/89/81
f 82/82/82 90/90/82 91/91/82
f 92/92/83 83/83/83 91/91/84
f 85/85/85 93/93/85 90/90/85
f 86/86/86 94/94/86 95/95/86
f 88/88/87 96/96/87 94/94/87
f 93/93/88 89/89/88 97/97/88
f 87/87/89 95/95/89 97/97/89
f 90/90/90 98/98/90 99/99/90
f 100/100/91 91/91/91 99/99/92
f 93/93/93 101/101/93 98/98/93
f 95/95/94 94/94/94 102/102/94
f 96/96/95 103/103/95 102/102/95
f 101/101/96 97/97/96 104/104/96
f 95/95/97 105/105/97 104/104/97
f 98/98/98 106/106/98 107/107/98
f 108/108/99 99/99/99 107/107/100
f 101/101/101 109/109/101 106/106/101
f 102/102/102 110/110/102 111/111/102
f 103/103/103 112/112/103 110/110/103
f 109/109/104 104/104/104 113/113/104
f 105/105/105 111/111/105 113/113/105
f 106/106/106 114/114/106 115/115/106
f 116/116/107 107/107/107 115/115/108
f 109/109/109 117/117/109 114/114/109
f 111/111/110 110/110/110 118/118/110
f 110/110/111 112/112/111 119/119/111
f 117/117/112 113/113/112 120/120/112
f 111/111/113 121/121/113 120/120/113
f 114/114/114 122/122/114 123/123/114
f 124/124/115 115/115/115 123/123/115
f 117/117/116 125/125/116 122/122/116
f 11/11/117 126/126/117 12/12/117
f 18/18/118 126/126/118 11/11/118
f 40/40/119 126/126/119 38/38/119
f 47/47/120 126/126/120 40/40/120
f 57/57/121 126/126/121 47/47/121
f 63/63/122 126/126/122 57/57/122
f 24/24/123 126/126/123 18/18/123
f 38/38/124 126/126/124 24/24/124
f 12/12/125 126/126/125 74/74/125
f 74/74/126 126/126/126 80/80/126
f 80/80/127 126/126/127 88/88/127
f 88/88/128 126/126/128 96/96/128
f 96/96/129 126/126/129 103/103/129
f 103/103/130 126/126/130 112/112/130
f 112/112/131 126/126/131 119/119/131
f 121/121/132 118/118/132 61/61/132
f 118/118/133 119/119/133 63/63/133
f 125/125/134 120/120/134 65/65/134
f 120/120/135 121/121/135 66/66/135
f 119/119/136 126/126/136 63/63/136
f 123/123/137 122/122/137 62/62/137
f 127/127/138 123/123/138 67/67/139
f 125/125/140 64/64/140 62/62/140
f 70/70/2 1/1/1 3/3/2
f 8/8/3 4/4/3 6/6/3
f 9/9/4 7/7/4 6/6/4
f 22/22/5 7/7/5 10/10/5
f 14/14/6 11/11/6 13/13/6
f 4/4/7 14/14/7 5/5/7
f 1/1/8 15/15/8 2/2/8
f 14/14/9 17/17/9 11/11/9
f 23/23/10 19/19/10 8/8/10
f 22/22/11 20/20/11 7/7/11
f 16/16/12 20/20/12 2/2/12
f 21/21/13 23/23/13 7/7/13
f 27/27/14 24/24/14 17/17/14
f 31/31/15 25/25/15 20/20/15
f 28/28/16 26/26/16 23/23/16
f 19/19/17 26/26/17 17/17/17
f 25/25/18 28/28/18 21/21/18
f 15/15/20 29/29/19 16/16/20
f 30/30/21 31/31/21 16/16/21
f 36/36/22 32/32/22 28/28/22
f 128/128/23 33/33/23 29/29/24
f 32/32/25 34/34/25 26/26/25
f 37/37/26 35/35/26 31/31/26
f 25/25/27 35/35/27 28/28/27
f 33/33/28 37/37/28 30/30/28
f 34/34/29 38/38/29 27/27/29
f 34/34/30 39/39/30 38/38/30
f 35/35/31 41/41/31 36/36/31
f 128/128/33 43/43/32 33/33/33
f 45/45/34 41/41/34 37/37/34
f 44/44/35 45/45/35 33/33/35
f 32/32/36 46/46/36 34/34/36
f 42/42/37 46/46/37 36/36/37
f 52/52/38 47/47/38 39/39/38
f 54/54/39 48/48/39 45/45/39
f 48/48/40 49/49/40 41/41/40
f 43/43/41 50/50/41 44/44/41
f 53/53/42 52/52/42 46/46/42
f 49/49/43 53/53/43 42/42/43
f 51/51/44 54/54/44 44/44/44
f 69/69/45 55/55/45 49/49/45
f 60/60/46 56/56/46 54/54/46
f 59/59/47 57/57/47 52/52/47
f 68/68/48 58/58/48 50/50/48
f 55/55/49 59/59/49 53/53/49
f 51/51/50 58/58/50 54/54/50
f 66/66/51 61/61/51 55/55/51
f 67/67/52 62/62/52 58/58/52
f 61/61/53 63/63/53 59/59/53
f 62/62/54 64/64/54 60/60/54
f 69/69/55 65/65/55 55/55/55
f 129/129/56 67/67/56 68/68/57
f 2/2/58 22/22/58 3/3/58
f 19/19/59 17/17/59 4/4/59
f 48/48/60 56/56/60 49/49/60
f 56/56/61 64/64/61 69/69/61
f 84/84/63 70/70/62 71/71/63
f 5/5/64 13/13/64 73/73/64
f 13/13/65 12/12/65 72/72/65
f 10/10/66 9/9/66 76/76/66
f 6/6/67 5/5/67 77/77/67
f 75/75/68 9/9/68 77/77/68
f 3/3/69 10/10/69 71/71/69
f 73/73/70 72/72/70 79/79/70
f 72/72/71 74/74/71 78/78/71
f 85/85/72 75/75/72 81/81/72
f 77/77/73 73/73/73 81/81/73
f 71/71/74 76/76/74 83/83/74
f 92/92/76 84/84/75 83/83/76
f 76/76/77 75/75/77 82/82/77
f 79/79/78 78/78/78 87/87/78
f 78/78/79 80/80/79 86/86/79
f 93/93/80 85/85/80 89/89/80
f 81/81/81 79/79/81 89/89/81
f 83/83/82 82/82/82 91/91/82
f 100/100/84 92/92/83 91/91/84
f 82/82/85 85/85/85 90/90/85
f 87/87/86 86/86/86 95/95/86
f 86/86/87 88/88/87 94/94/87
f 101/101/88 93/93/88 97/97/88
f 89/89/89 87/87/89 97/97/89
f 91/91/90 90/90/90 99/99/90
f 108/108/92 100/100/91 99/99/92
f 90/90/93 93/93/93 98/98/93
f 105/105/94 95/95/94 102/102/94
f 94/94/95 96/96/95 102/102/95
f 109/109/96 101/101/96 104/104/96
f 97/97/97 95/95/97 104/104/97
f 99/99/98 98/98/98 107/107/98
f 116/116/100 108/108/99 107/107/100
f 98/98/101 101/101/101 106/106/101
f 105/105/102 102/102/102 111/111/102
f 102/102/103 103/103/103 110/110/103
f 117/117/104 109/109/104 113/113/104
f 104/104/105 105/105/105 113/113/105
f 107/107/106 106/106/106 115/115/106
f 124/124/108 116/116/107 115/115/108
f 106/106/109 109/109/109 114/114/109
f 121/121/110 111/111/110 118/118/110
f 118/118/111 110/110/111 119/119/111
f 125/125/112 117/117/112 120/120/112
f 113/113/113 111/111/113 120/120/113
f 115/115/114 114/114/114 123/123/114
f 127/127/115 124/124/115 123/123/115
f 114/114/116 117/117/116 122/122/116
f 66/66/132 121/121/132 61/61/132
f 61/61/133 118/118/133 63/63/133
f 64/64/134 125/125/134 65/65/134
f 65/65/135 120/120/135 66/66/135
f 67/67/137 123/123/137 62/62/137
f 129/129/139 127/127/138 67/67/139
f 122/122/140 125/125/140 62/62/140
