# Blender v2.74 (sub 0) OBJ File: 'bubble.blend'
# www.blender.org
o Sphere
v 0.179336 0.724244 -0.077125
v 0.352649 0.704327 -0.148914
v 0.512376 0.671984 -0.215075
v 0.652377 0.628457 -0.273065
v 0.767274 0.575419 -0.320657
v 0.852649 0.514909 -0.356021
v 0.905223 0.449251 -0.377798
v 0.922975 0.380969 -0.385151
v 0.706203 0.380969 -0.709574
v 0.692616 0.449251 -0.695987
v 0.652378 0.514909 -0.655749
v 0.587034 0.575419 -0.590405
v 0.499096 0.628457 -0.502467
v 0.391944 0.671984 -0.395315
v 0.269694 0.704327 -0.273066
v 0.137046 0.724244 -0.140417
v 0.073754 0.724244 -0.182708
v 0.145543 0.704327 -0.356021
v 0.211703 0.671984 -0.515748
v 0.269694 0.628457 -0.655749
v 0.317286 0.575419 -0.770645
v 0.352649 0.514909 -0.856021
v 0.374426 0.449251 -0.908595
v 0.381779 0.380969 -0.926347
v -0.000904 0.380969 -1.002468
v -0.000904 0.449251 -0.983253
v -0.000904 0.514909 -0.926347
v -0.000904 0.575419 -0.833937
v -0.000904 0.628457 -0.709574
v -0.000904 0.671984 -0.558038
v -0.000904 0.704327 -0.385151
v -0.000904 0.724244 -0.197558
v -0.075562 0.724244 -0.182708
v -0.147351 0.704327 -0.356021
v -0.213512 0.671984 -0.515748
v -0.271502 0.628457 -0.655749
v -0.319094 0.575419 -0.770645
v -0.354458 0.514909 -0.856021
v -0.376235 0.449251 -0.908595
v -0.383588 0.380969 -0.926347
v -0.708011 0.380969 -0.709574
v -0.694424 0.449251 -0.695988
v -0.654186 0.514909 -0.655749
v -0.588842 0.575419 -0.590405
v -0.500905 0.628457 -0.502468
v -0.393752 0.671984 -0.395315
v -0.271503 0.704327 -0.273066
v -0.138854 0.724244 -0.140417
v -0.181145 0.724244 -0.077125
v -0.354458 0.704327 -0.148914
v -0.514185 0.671984 -0.215075
v -0.654186 0.628457 -0.273066
v -0.769082 0.575419 -0.320657
v -0.854458 0.514909 -0.356021
v -0.907032 0.449251 -0.377798
v -0.924784 0.380969 -0.385151
v -1.000905 0.380969 -0.002467
v -0.981690 0.449251 -0.002467
v -0.924784 0.514909 -0.002467
v -0.832374 0.575419 -0.002467
v -0.708011 0.628457 -0.002467
v -0.556475 0.671984 -0.002467
v -0.383588 0.704327 -0.002467
v -0.195995 0.724244 -0.002467
v 0.194186 0.724244 -0.002467
v 0.381779 0.704327 -0.002467
v 0.554666 0.671984 -0.002467
v 0.706203 0.628457 -0.002467
v 0.830565 0.575419 -0.002467
v 0.922975 0.514909 -0.002467
v 0.979881 0.449251 -0.002467
v 0.999096 0.380969 -0.002467
v 0.179336 0.724244 0.072191
v 0.352649 0.704327 0.143979
v 0.512376 0.671984 0.210140
v 0.652377 0.628457 0.268131
v 0.767273 0.575419 0.315723
v 0.852649 0.514909 0.351086
v 0.905223 0.449251 0.372863
v 0.922975 0.380969 0.380216
v 0.137046 0.724244 0.135483
v 0.269694 0.704327 0.268131
v 0.391943 0.671984 0.390380
v 0.499096 0.628457 0.497533
v 0.587033 0.575419 0.585471
v 0.652377 0.514909 0.650814
v 0.692615 0.449251 0.691053
v 0.706202 0.380969 0.704640
v 0.073754 0.724244 0.177773
v 0.145542 0.704327 0.351086
v 0.211703 0.671984 0.510813
v 0.269694 0.628457 0.650814
v 0.317285 0.575419 0.765711
v 0.352649 0.514909 0.851086
v 0.374426 0.449251 0.903660
v 0.381779 0.380969 0.921412
v -0.000904 0.724244 0.192623
v -0.000904 0.704327 0.380216
v -0.000905 0.671984 0.553103
v -0.000905 0.628457 0.704639
v -0.000905 0.575419 0.829002
v -0.000905 0.514909 0.921412
v -0.000905 0.449251 0.978318
v -0.000905 0.380969 0.997533
v -0.075562 0.724244 0.177773
v -0.147351 0.704327 0.351086
v -0.213512 0.671984 0.510813
v -0.271503 0.628457 0.650814
v -0.319094 0.575419 0.765710
v -0.354458 0.514909 0.851086
v -0.376235 0.449251 0.903660
v -0.383588 0.380969 0.921412
v -0.138854 0.724244 0.135482
v -0.271503 0.704327 0.268131
v -0.393752 0.671984 0.390380
v -0.500904 0.628457 0.497532
v -0.588842 0.575419 0.585470
v -0.654186 0.514909 0.650814
v -0.694424 0.449251 0.691052
v -0.708012 0.380969 0.704639
v -0.000905 0.730969 -0.002467
v -0.181145 0.724244 0.072190
v -0.354458 0.704327 0.143979
v -0.514185 0.671984 0.210140
v -0.654186 0.628457 0.268130
v -0.769082 0.575419 0.315722
v -0.854458 0.514909 0.351086
v -0.907032 0.449251 0.372862
v -0.924784 0.380969 0.380216
vt 0.599456 0.000000
vt 0.594628 0.009607
vt 0.399538 0.009607
vt 0.542822 0.222215
vt 0.432313 0.222215
vt 0.419101 0.146447
vt 0.574388 0.084265
vt 0.559753 0.146447
vt 0.408998 0.084265
vt 0.402392 0.038060
vt 0.504738 0.402455
vt 0.465932 0.402455
vt 0.448126 0.308658
vt 0.524246 0.308658
vt 0.783227 0.076120
vt 0.774868 0.084265
vt 0.594572 0.337788
vt 0.540590 0.417305
vt 0.644920 0.264505
vt 0.755946 0.108386
vt 0.727188 0.147557
vt 0.586163 0.038060
vt 0.689699 0.200272
vt 0.568030 0.444745
vt 0.844136 0.264505
vt 0.723063 0.342647
vt 0.648398 0.391613
vt 0.789155 0.299728
vt 0.923879 0.216772
vt 0.912818 0.222215
vt 0.885892 0.238332
vt 0.765353 0.444745
vt 0.987476 0.402455
vt 0.677528 0.461940
vt 0.907428 0.417305
vt 0.842981 0.429674
vt 0.956218 0.408114
vt 0.582880 0.480597
vt 0.677528 0.538060
vt 0.582880 0.519403
vt 0.907428 0.582695
vt 0.842981 0.570326
vt 1.000000 0.599456
vt 0.987475 0.597545
vt 0.956218 0.591885
vt 0.765353 0.555255
vt 0.568030 0.555255
vt 0.844136 0.735495
vt 0.789155 0.700272
vt 0.923879 0.783227
vt 0.912818 0.777785
vt 0.648398 0.608386
vt 0.723063 0.657353
vt 0.885892 0.761668
vt 0.644920 0.735495
vt 0.727188 0.852443
vt 0.540590 0.582695
vt 0.774868 0.915735
vt 0.594572 0.662212
vt 0.755946 0.891614
vt 0.524246 0.691342
vt 0.586164 0.961940
vt 0.504738 0.597545
vt 0.574388 0.915735
vt 0.559753 0.853553
vt 0.542823 0.777785
vt 0.594628 0.990393
vt 0.783227 0.923880
vt 0.689699 0.799728
vt 0.400544 0.000000
vt 0.219298 0.084265
vt 0.377799 0.337788
vt 0.330215 0.264505
vt 0.430080 0.417305
vt 0.256198 0.147557
vt 0.232610 0.108387
vt 0.289155 0.200272
vt 0.323974 0.391614
vt 0.252073 0.342647
vt 0.402640 0.444745
vt 0.189699 0.299728
vt 0.102664 0.238332
vt 0.081348 0.222215
vt 0.216773 0.076121
vt 0.139250 0.264505
vt 0.294844 0.461940
vt 0.209783 0.444745
vt 0.387790 0.480597
vt 0.135874 0.429674
vt 0.032338 0.408115
vt 0.006690 0.402455
vt 0.076120 0.216773
vt 0.075958 0.417305
vt 0.294844 0.538060
vt 0.209783 0.555255
vt 0.387790 0.519403
vt 0.135874 0.570326
vt 0.032338 0.591886
vt 0.006691 0.597545
vt 0.000000 0.400544
vt 0.075958 0.582695
vt 0.323974 0.608386
vt 0.402640 0.555255
vt 0.189699 0.700272
vt 0.252073 0.657353
vt 0.102665 0.761668
vt 0.081348 0.777785
vt 0.000000 0.599456
vt 0.139250 0.735495
vt 0.377800 0.662212
vt 0.330215 0.735495
vt 0.430080 0.582695
vt 0.289156 0.799728
vt 0.232611 0.891614
vt 0.219298 0.915735
vt 0.076121 0.783228
vt 0.256199 0.852443
vt 0.448126 0.691342
vt 0.465932 0.597545
vt 0.419101 0.853553
vt 0.432313 0.777785
vt 0.402393 0.961940
vt 0.399538 0.990392
vt 0.216773 0.923880
vt 0.408999 0.915735
vt 0.485048 0.500000
vt 0.400544 1.000000
vt 1.000000 0.400544
vt 0.599456 1.000000
vn 0.945400 0.266000 -0.188100
vn 0.275700 0.959700 -0.054800
vn 0.391100 0.917100 -0.077800
vn 0.544600 0.831700 -0.108300
vn 0.105600 0.994200 -0.021000
vn 0.183800 0.982300 -0.036600
vn 0.801500 0.266000 -0.535500
vn 0.089500 0.994200 -0.059800
vn 0.233700 0.959700 -0.156100
vn 0.461700 0.831700 -0.308500
vn 0.633500 0.647700 -0.423300
vn 0.331600 0.917100 -0.221500
vn 0.059800 0.994200 -0.089500
vn 0.308500 0.831700 -0.461700
vn 0.156100 0.959700 -0.233700
vn 0.104100 0.982300 -0.155800
vn 0.221500 0.917100 -0.331600
vn 0.535500 0.266100 -0.801500
vn 0.423300 0.647700 -0.633500
vn 0.054800 0.959700 -0.275700
vn 0.188100 0.266100 -0.945400
vn 0.036600 0.982300 -0.183800
vn 0.108300 0.831700 -0.544600
vn 0.077800 0.917100 -0.391100
vn 0.148600 0.647700 -0.747300
vn 0.021000 0.994200 -0.105600
vn -0.021000 0.994200 -0.105600
vn -0.077800 0.917100 -0.391100
vn -0.188100 0.266100 -0.945400
vn -0.108300 0.831700 -0.544600
vn -0.148600 0.647700 -0.747300
vn -0.036600 0.982300 -0.183800
vn -0.054800 0.959700 -0.275700
vn -0.059800 0.994200 -0.089500
vn -0.308500 0.831700 -0.461700
vn -0.221500 0.917100 -0.331600
vn -0.535500 0.266100 -0.801500
vn -0.104100 0.982300 -0.155800
vn -0.156100 0.959700 -0.233700
vn -0.423300 0.647700 -0.633500
vn -0.233700 0.959700 -0.156100
vn -0.461700 0.831700 -0.308500
vn -0.089500 0.994200 -0.059800
vn -0.801500 0.266100 -0.535500
vn -0.155800 0.982300 -0.104100
vn -0.633500 0.647700 -0.423300
vn -0.183800 0.982300 -0.036600
vn -0.747300 0.647700 -0.148600
vn -0.105600 0.994200 -0.021000
vn -0.544600 0.831700 -0.108300
vn -0.275700 0.959700 -0.054800
vn -0.945400 0.266000 -0.188100
vn 0.747300 0.647700 -0.148600
vn 0.155800 0.982300 -0.104100
vn -0.331600 0.917100 -0.221500
vn -0.391100 0.917100 -0.077800
vn 0.945400 0.266100 0.188100
vn 0.183800 0.982300 0.036600
vn 0.105600 0.994200 0.021000
vn 0.544600 0.831700 0.108300
vn 0.275700 0.959700 0.054800
vn 0.391100 0.917100 0.077800
vn 0.747300 0.647700 0.148600
vn 0.155800 0.982300 0.104100
vn 0.089500 0.994200 0.059800
vn 0.331600 0.917100 0.221500
vn 0.233700 0.959700 0.156100
vn 0.633500 0.647700 0.423300
vn 0.801500 0.266100 0.535500
vn 0.461700 0.831700 0.308500
vn 0.104100 0.982300 0.155800
vn 0.059800 0.994200 0.089500
vn 0.221500 0.917100 0.331600
vn 0.156100 0.959700 0.233700
vn 0.423300 0.647700 0.633500
vn 0.535500 0.266100 0.801500
vn 0.308500 0.831700 0.461700
vn 0.036600 0.982300 0.183800
vn 0.021000 0.994200 0.105600
vn 0.077800 0.917100 0.391100
vn 0.054800 0.959700 0.275700
vn 0.148600 0.647700 0.747300
vn 0.188100 0.266100 0.945400
vn 0.108300 0.831700 0.544600
vn -0.036600 0.982300 0.183800
vn -0.021000 0.994200 0.105600
vn -0.077800 0.917100 0.391100
vn -0.054800 0.959700 0.275700
vn -0.148600 0.647700 0.747300
vn -0.188100 0.266100 0.945400
vn -0.108300 0.831700 0.544600
vn -0.104100 0.982300 0.155800
vn -0.059800 0.994200 0.089500
vn -0.221500 0.917100 0.331600
vn -0.156100 0.959700 0.233700
vn -0.423300 0.647700 0.633500
vn -0.535500 0.266100 0.801500
vn -0.308500 0.831700 0.461700
vn -0.155800 0.982300 0.104100
vn -0.089500 0.994200 0.059800
vn -0.331600 0.917100 0.221500
vn -0.233700 0.959700 0.156100
vn -0.633500 0.647700 0.423300
vn -0.801500 0.266100 0.535500
vn -0.461700 0.831700 0.308500
vn 0.034500 0.999400 -0.006900
vn 0.029200 0.999400 -0.019500
vn -0.006900 0.999400 -0.034500
vn -0.019500 0.999400 -0.029200
vn -0.029200 0.999400 -0.019500
vn -0.034500 0.999400 -0.006900
vn 0.019500 0.999400 -0.029200
vn 0.006900 0.999400 -0.034500
vn 0.034500 0.999400 0.006900
vn 0.029200 0.999400 0.019500
vn 0.019500 0.999400 0.029200
vn 0.006900 0.999400 0.034500
vn -0.006900 0.999400 0.034500
vn -0.019500 0.999400 0.029200
vn -0.029200 0.999400 0.019500
vn -0.183800 0.982300 0.036600
vn -0.105600 0.994200 0.021000
vn -0.391100 0.917100 0.077800
vn -0.275700 0.959700 0.054800
vn -0.034500 0.999400 0.006900
vn -0.747300 0.647700 0.148600
vn -0.945400 0.266100 0.188100
vn -0.544600 0.831700 0.108300
vn 0.945400 0.266100 -0.188100
vn 0.801500 0.266100 -0.535500
vn 0.535500 0.266000 -0.801500
vn -0.801500 0.266000 -0.535500
vn -0.945400 0.266100 -0.188100
vn -0.945400 0.266000 0.188100
s off
f 8/1/1 7/2/1 71/3/1
f 3/4/2 67/5/2 68/6/2
f 5/7/3 4/8/3 68/6/3
f 5/7/4 69/9/4 70/10/4
f 1/11/5 65/12/5 66/13/5
f 2/14/6 66/13/6 67/5/6
f 9/15/7 10/16/7 7/2/7
f 15/17/8 16/18/8 1/11/8
f 14/19/9 3/4/9 4/8/9
f 11/20/10 12/21/10 5/7/10
f 11/20/11 6/22/11 7/2/11
f 13/23/12 4/8/12 5/7/12
f 17/24/13 16/18/13 15/17/13
f 21/25/14 12/21/14 11/20/14
f 19/26/15 14/19/15 13/23/15
f 19/26/16 18/27/16 15/17/16
f 20/28/17 13/23/17 12/21/17
f 24/29/18 23/30/18 10/16/18
f 22/31/19 11/20/19 10/16/19
f 30/32/20 19/26/20 20/28/20
f 26/33/21 23/30/21 24/29/21
f 31/34/22 18/27/22 19/26/22
f 28/35/23 21/25/23 22/31/23
f 28/35/24 29/36/24 20/28/24
f 27/37/25 22/31/25 23/30/25
f 32/38/26 17/24/26 18/27/26
f 34/39/27 33/40/27 32/38/27
f 37/41/28 36/42/28 29/36/28
f 40/43/29 39/44/29 26/33/29
f 37/41/30 28/35/30 27/37/30
f 38/45/31 27/37/31 26/33/31
f 35/46/32 34/39/32 31/34/32
f 35/46/33 30/32/33 29/36/33
f 48/47/34 33/40/34 34/39/34
f 44/48/35 37/41/35 38/45/35
f 45/49/36 36/42/36 37/41/36
f 41/50/37 42/51/37 39/44/37
f 47/52/38 34/39/38 35/46/38
f 46/53/39 35/46/39 36/42/39
f 43/54/40 38/45/40 39/44/40
f 51/55/41 46/53/41 45/49/41
f 53/56/42 44/48/42 43/54/42
f 49/57/43 48/47/43 47/52/43
f 55/58/44 42/51/44 41/50/44
f 50/59/45 47/52/45 46/53/45
f 55/58/46 54/60/46 43/54/46
f 63/61/47 50/59/47 51/55/47
f 59/62/48 54/60/48 55/58/48
f 64/63/49 49/57/49 50/59/49
f 60/64/50 53/56/50 54/60/50
f 61/65/51 62/66/51 51/55/51
f 58/67/52 55/58/52 56/68/52
f 6/22/53 70/10/53 71/3/53
f 15/17/54 2/14/54 3/4/54
f 53/56/55 52/69/55 45/49/55
f 60/64/56 61/65/56 52/69/56
f 72/70/57 71/3/57 79/71/57
f 66/13/58 74/72/58 75/73/58
f 65/12/59 73/74/59 74/72/59
f 69/9/60 77/75/60 78/76/60
f 67/5/61 75/73/61 76/77/61
f 69/9/62 68/6/62 76/77/62
f 70/10/63 78/76/63 79/71/63
f 74/72/64 82/78/64 83/79/64
f 73/74/65 81/80/65 82/78/65
f 77/75/66 76/77/66 84/81/66
f 75/73/67 83/79/67 84/81/67
f 78/76/68 86/82/68 87/83/68
f 80/84/69 79/71/69 87/83/69
f 77/75/70 85/85/70 86/82/70
f 82/78/71 90/86/71 91/87/71
f 81/80/72 89/88/72 90/86/72
f 85/85/73 84/81/73 92/89/73
f 83/79/74 91/87/74 92/89/74
f 86/82/75 94/90/75 95/91/75
f 88/92/76 87/83/76 95/91/76
f 85/85/77 93/93/77 94/90/77
f 90/86/78 98/94/78 99/95/78
f 89/88/79 97/96/79 98/94/79
f 93/93/80 92/89/80 100/97/80
f 91/87/81 99/95/81 100/97/81
f 94/90/82 102/98/82 103/99/82
f 96/100/83 95/91/83 103/99/83
f 93/93/84 101/101/84 102/98/84
f 99/95/85 98/94/85 106/102/85
f 97/96/86 105/103/86 106/102/86
f 101/101/87 100/97/87 108/104/87
f 99/95/88 107/105/88 108/104/88
f 102/98/89 110/106/89 111/107/89
f 104/108/90 103/99/90 111/107/90
f 101/101/91 109/109/91 110/106/91
f 106/102/92 114/110/92 115/111/92
f 105/103/93 113/112/93 114/110/93
f 109/109/94 108/104/94 116/113/94
f 107/105/95 115/111/95 116/113/95
f 110/106/96 118/114/96 119/115/96
f 112/116/97 111/107/97 119/115/97
f 109/109/98 117/117/98 118/114/98
f 115/111/99 114/110/99 123/118/99
f 114/110/100 113/112/100 122/119/100
f 117/117/101 116/113/101 125/120/101
f 115/111/102 124/121/102 125/120/102
f 118/114/103 127/122/103 128/123/103
f 120/124/104 119/115/104 128/123/104
f 117/117/105 126/125/105 127/122/105
f 1/11/106 121/126/106 65/12/106
f 16/18/107 121/126/107 1/11/107
f 33/40/108 121/126/108 32/38/108
f 48/47/109 121/126/109 33/40/109
f 49/57/110 121/126/110 48/47/110
f 64/63/111 121/126/111 49/57/111
f 17/24/112 121/126/112 16/18/112
f 32/38/113 121/126/113 17/24/113
f 65/12/114 121/126/114 73/74/114
f 73/74/115 121/126/115 81/80/115
f 81/80/116 121/126/116 89/88/116
f 89/88/117 121/126/117 97/96/117
f 97/96/118 121/126/118 105/103/118
f 105/103/119 121/126/119 113/112/119
f 113/112/120 121/126/120 122/119/120
f 124/121/121 123/118/121 63/61/121
f 123/118/122 122/119/122 64/63/122
f 126/125/123 125/120/123 61/65/123
f 125/120/124 124/121/124 62/66/124
f 122/119/125 121/126/125 64/63/125
f 128/123/126 127/122/126 59/62/126
f 129/127/127 128/123/127 58/67/127
f 126/125/128 60/64/128 59/62/128
f 72/70/129 8/1/129 71/3/129
f 4/8/2 3/4/2 68/6/2
f 69/9/3 5/7/3 68/6/3
f 6/22/4 5/7/4 70/10/4
f 2/14/5 1/11/5 66/13/5
f 3/4/6 2/14/6 67/5/6
f 8/1/130 9/15/130 7/2/130
f 2/14/8 15/17/8 1/11/8
f 13/23/9 14/19/9 4/8/9
f 6/22/10 11/20/10 5/7/10
f 10/16/11 11/20/11 7/2/11
f 12/21/12 13/23/12 5/7/12
f 18/27/13 17/24/13 15/17/13
f 22/31/14 21/25/14 11/20/14
f 20/28/15 19/26/15 13/23/15
f 14/19/16 19/26/16 15/17/16
f 21/25/17 20/28/17 12/21/17
f 9/15/131 24/29/131 10/16/131
f 23/30/19 22/31/19 10/16/19
f 29/36/20 30/32/20 20/28/20
f 25/128/21 26/33/21 24/29/21
f 30/32/22 31/34/22 19/26/22
f 27/37/23 28/35/23 22/31/23
f 21/25/24 28/35/24 20/28/24
f 26/33/25 27/37/25 23/30/25
f 31/34/26 32/38/26 18/27/26
f 31/34/27 34/39/27 32/38/27
f 28/35/28 37/41/28 29/36/28
f 25/128/29 40/43/29 26/33/29
f 38/45/30 37/41/30 27/37/30
f 39/44/31 38/45/31 26/33/31
f 30/32/32 35/46/32 31/34/32
f 36/42/33 35/46/33 29/36/33
f 47/52/34 48/47/34 34/39/34
f 43/54/35 44/48/35 38/45/35
f 44/48/36 45/49/36 37/41/36
f 40/43/37 41/50/37 39/44/37
f 46/53/38 47/52/38 35/46/38
f 45/49/39 46/53/39 36/42/39
f 42/51/40 43/54/40 39/44/40
f 52/69/41 51/55/41 45/49/41
f 54/60/42 53/56/42 43/54/42
f 50/59/43 49/57/43 47/52/43
f 56/68/132 55/58/132 41/50/132
f 51/55/45 50/59/45 46/53/45
f 42/51/46 55/58/46 43/54/46
f 62/66/47 63/61/47 51/55/47
f 58/67/48 59/62/48 55/58/48
f 63/61/49 64/63/49 50/59/49
f 59/62/50 60/64/50 54/60/50
f 52/69/51 61/65/51 51/55/51
f 57/129/133 58/67/133 56/68/133
f 7/2/53 6/22/53 71/3/53
f 14/19/54 15/17/54 3/4/54
f 44/48/55 53/56/55 45/49/55
f 53/56/56 60/64/56 52/69/56
f 80/84/57 72/70/57 79/71/57
f 67/5/58 66/13/58 75/73/58
f 66/13/59 65/12/59 74/72/59
f 70/10/60 69/9/60 78/76/60
f 68/6/61 67/5/61 76/77/61
f 77/75/62 69/9/62 76/77/62
f 71/3/63 70/10/63 79/71/63
f 75/73/64 74/72/64 83/79/64
f 74/72/65 73/74/65 82/78/65
f 85/85/66 77/75/66 84/81/66
f 76/77/67 75/73/67 84/81/67
f 79/71/68 78/76/68 87/83/68
f 88/92/69 80/84/69 87/83/69
f 78/76/70 77/75/70 86/82/70
f 83/79/71 82/78/71 91/87/71
f 82/78/72 81/80/72 90/86/72
f 93/93/73 85/85/73 92/89/73
f 84/81/74 83/79/74 92/89/74
f 87/83/75 86/82/75 95/91/75
f 96/100/76 88/92/76 95/91/76
f 86/82/77 85/85/77 94/90/77
f 91/87/78 90/86/78 99/95/78
f 90/86/79 89/88/79 98/94/79
f 101/101/80 93/93/80 100/97/80
f 92/89/81 91/87/81 100/97/81
f 95/91/82 94/90/82 103/99/82
f 104/108/83 96/100/83 103/99/83
f 94/90/84 93/93/84 102/98/84
f 107/105/85 99/95/85 106/102/85
f 98/94/86 97/96/86 106/102/86
f 109/109/87 101/101/87 108/104/87
f 100/97/88 99/95/88 108/104/88
f 103/99/89 102/98/89 111/107/89
f 112/116/90 104/108/90 111/107/90
f 102/98/91 101/101/91 110/106/91
f 107/105/92 106/102/92 115/111/92
f 106/102/93 105/103/93 114/110/93
f 117/117/94 109/109/94 116/113/94
f 108/104/95 107/105/95 116/113/95
f 111/107/96 110/106/96 119/115/96
f 120/124/97 112/116/97 119/115/97
f 110/106/98 109/109/98 118/114/98
f 124/121/99 115/111/99 123/118/99
f 123/118/100 114/110/100 122/119/100
f 126/125/101 117/117/101 125/120/101
f 116/113/102 115/111/102 125/120/102
f 119/115/103 118/114/103 128/123/103
f 129/127/104 120/124/104 128/123/104
f 118/114/105 117/117/105 127/122/105
f 62/66/121 124/121/121 63/61/121
f 63/61/122 123/118/122 64/63/122
f 60/64/123 126/125/123 61/65/123
f 61/65/124 125/120/124 62/66/124
f 58/67/126 128/123/126 59/62/126
f 57/129/134 129/127/134 58/67/134
f 127/122/128 126/125/128 59/62/128
