# Blender v2.74 (sub 0) OBJ File: 'decorator.blend'
# www.blender.org
o Cube.001_Cube.000
v -0.200000 1.100000 0.450000
v -0.375000 1.600000 0.625000
v -0.200000 1.100000 0.050000
v -0.375000 1.600000 -0.125000
v 0.200000 1.100000 0.450000
v 0.375000 1.600000 0.625000
v 0.200000 1.100000 0.050000
v 0.375000 1.600000 -0.125000
vt 0.000000 1.000000
vt 0.000000 0.750000
vt 0.250000 0.750000
vt 0.250000 1.000000
vn -0.943900 -0.330400 0.000000
vn 0.000000 -0.330400 -0.943900
vn 0.943900 -0.330400 0.000000
vn 0.000000 -0.330400 0.943900
s off
f 4/1/1 3/2/1 1/3/1
f 8/1/2 7/2/2 3/3/2
f 6/1/3 5/2/3 7/3/3
f 2/1/4 1/2/4 5/3/4
f 2/4/1 4/1/1 1/3/1
f 4/4/2 8/1/2 3/3/2
f 8/4/3 6/1/3 7/3/3
f 6/4/4 2/1/4 5/3/4
o Cube_Cube.001
v -0.250000 -1.000000 1.000000
v -0.250000 1.000000 1.000000
v -0.250000 -1.000000 -0.500000
v -0.250000 1.000000 -1.000000
v 0.250000 -1.000000 1.000000
v 0.250000 1.000000 1.000000
v 0.250000 -1.000000 -0.500000
v 0.250000 1.000000 -1.000000
v 0.250000 0.500000 -0.500000
v 0.250000 -0.500000 -0.500000
v 0.250000 0.500000 0.500000
v 0.250000 -0.500000 0.500000
v -0.250000 -0.500000 0.500000
v -0.250000 0.500000 0.500000
v -0.250000 0.500000 -0.500000
v -0.250000 -0.500000 -0.500000
v -0.250000 1.000000 0.500000
v -0.250000 1.000000 0.000000
v 0.250000 1.000000 0.000000
v 0.250000 1.000000 0.500000
v -0.250000 1.100000 0.500000
v -0.250000 1.100000 0.000000
v 0.250000 1.100000 0.000000
v 0.250000 1.100000 0.500000
v -0.200000 1.100000 0.450000
v -0.200000 1.100000 0.050000
v 0.200000 1.100000 0.050000
v 0.200000 1.100000 0.450000
v -0.200000 1.050000 0.450000
v -0.200000 1.050000 0.050000
v 0.200000 1.050000 0.050000
v 0.200000 1.050000 0.450000
vt 0.281250 0.375000
vt 0.000000 0.375000
vt 0.093750 0.468750
vt 0.281250 0.000000
vt 0.281250 0.093750
vt 0.093750 0.093750
vt 0.468750 -0.000000
vt 0.468750 0.375000
vt 0.375000 0.375000
vt 0.375000 0.093750
vt 0.375000 0.187500
vt 0.093750 0.187500
vt 0.187500 0.187500
vt 0.187500 0.281250
vt 0.000000 0.000000
vt 0.093750 0.281250
vt 0.093750 0.656250
vt 0.187500 0.750000
vt 0.281250 0.656250
vt 0.000000 0.750000
vt 0.281250 0.468750
vt 0.281250 0.562500
vt 0.093750 0.562500
vt 0.375000 0.468750
vt 0.375000 0.656250
vt 0.468750 0.656250
vt 0.468750 0.515625
vt 0.375000 0.515625
vt 0.468750 0.468750
vt 0.437500 0.468750
vt 0.375000 0.281250
vt 0.234375 0.281250
vt 0.234375 0.187500
vt 0.500000 0.406250
vt 0.500000 0.437500
vt 0.562500 0.343750
vt 0.562500 0.375000
vt 0.593750 0.375000
vt 0.562500 0.468750
vt 0.562500 0.500000
vt 0.468750 0.500000
vt 0.437500 0.390625
vt 0.406250 0.390625
vt 0.406250 0.453125
vt 0.531250 0.406250
vt 0.531250 0.437500
vt 0.640625 0.484375
vt 0.640625 0.546875
vt 0.578125 0.546875
vt 0.546875 0.312500
vt 0.546875 0.343750
vt 0.484375 0.343750
vt 0.625000 0.390625
vt 0.593750 0.390625
vt 0.593750 0.453125
vt 0.546875 0.500000
vt 0.546875 0.531250
vt 0.484375 0.531250
vt 0.281250 0.281250
vt 0.187500 0.375000
vt 0.375000 -0.000000
vt 0.093750 0.750000
vt 0.375000 0.750000
vt 0.437500 0.375000
vt 0.468750 0.343750
vt 0.593750 0.468750
vt 0.437500 0.453125
vt 0.578125 0.484375
vt 0.484375 0.312500
vt 0.625000 0.453125
vt 0.484375 0.500000
vt 0.093750 0.375000
vn -1.000000 0.000000 0.000000
vn 1.000000 0.000000 0.000000
vn 0.000000 0.000000 1.000000
vn 0.000000 -1.000000 0.000000
vn 0.000000 1.000000 0.000000
vn 0.000000 0.000000 -1.000000
vn 0.000000 -0.707100 -0.707100
s off
f 11/5/5 9/6/5 21/7/5
f 15/8/6 18/9/6 20/10/6
f 10/11/7 9/12/7 13/13/7
f 11/14/8 15/15/8 13/16/8
f 14/16/9 28/17/9 25/18/9
f 13/19/6 20/10/6 19/20/6
f 22/21/5 26/22/5 23/23/5
f 10/24/5 22/21/5 21/7/5
f 18/25/9 24/26/9 21/27/9
f 20/28/10 21/29/10 22/23/10
f 19/26/8 22/23/8 23/21/8
f 16/30/11 17/31/11 23/32/11
f 24/28/10 18/25/10 15/5/10
f 28/12/7 32/33/7 29/34/7
f 12/35/9 26/36/9 27/37/9
f 32/12/9 36/38/9 33/39/9
f 27/40/6 31/41/6 32/12/6
f 26/42/10 30/41/10 31/43/10
f 25/43/5 29/44/5 30/45/5
f 36/46/10 40/47/10 37/48/10
f 31/41/9 35/49/9 36/38/9
f 31/41/9 30/43/9 34/50/9
f 29/33/9 33/39/9 34/50/9
f 39/51/9 38/52/9 37/53/9
f 35/54/5 39/55/5 40/56/5
f 34/57/7 38/58/7 39/59/7
f 33/60/6 37/61/6 38/62/6
f 17/63/6 27/64/6 19/20/6
f 24/25/5 11/5/5 21/7/5
f 13/19/6 15/8/6 20/10/6
f 14/65/7 10/11/7 13/13/7
f 9/10/8 11/14/8 13/16/8
f 10/20/9 14/16/9 25/18/9
f 14/6/6 13/19/6 19/20/6
f 25/66/5 22/21/5 10/24/5
f 26/22/5 12/67/5 23/23/5
f 22/21/5 25/66/5 26/22/5
f 9/6/5 10/24/5 21/7/5
f 20/7/9 18/25/9 21/27/9
f 19/25/10 20/28/10 22/23/10
f 17/27/8 19/26/8 23/21/8
f 12/29/11 16/30/11 23/32/11
f 11/13/10 24/28/10 15/5/10
f 25/68/7 28/12/7 29/34/7
f 16/15/9 12/35/9 27/37/9
f 29/33/9 32/12/9 33/39/9
f 28/69/6 27/40/6 32/12/6
f 27/70/10 26/42/10 31/43/10
f 26/33/5 25/43/5 30/45/5
f 33/71/10 36/46/10 37/48/10
f 32/12/9 31/41/9 36/38/9
f 35/49/9 31/41/9 34/50/9
f 30/43/9 29/33/9 34/50/9
f 40/72/9 39/51/9 37/53/9
f 36/73/5 35/54/5 40/56/5
f 35/74/7 34/57/7 39/59/7
f 34/75/6 33/60/6 38/62/6
f 27/64/6 17/63/6 16/13/6
f 28/76/6 14/6/6 19/20/6
f 19/20/6 27/64/6 28/76/6
