# Blender v2.74 (sub 0) OBJ File: 'engine.blend'
# www.blender.org
o Cube
v 0.500000 0.000000 -0.500000
v 0.500000 0.000000 0.500000
v -0.500000 0.000000 0.500000
v -0.500000 0.000000 -0.500000
v 0.500000 0.250000 -0.500000
v 0.500000 0.250000 0.500000
v -0.500000 0.250000 0.500000
v -0.500000 0.250000 -0.500000
v 0.375000 0.500000 -0.375000
v 0.375000 0.500000 0.375000
v -0.375000 0.500000 0.375000
v -0.375000 0.500000 -0.375000
v 0.375000 0.750000 -0.375000
v 0.375000 0.750000 0.375000
v -0.375000 0.750000 0.375000
v -0.375000 0.750000 -0.375000
v 0.500000 1.000000 -0.500000
v 0.500000 1.000000 0.500000
v -0.500000 1.000000 0.500000
v -0.500000 1.000000 -0.500000
v 0.500000 2.250000 -0.500000
v 0.500000 2.250000 0.500000
v -0.500000 2.250000 0.500000
v -0.500000 2.250000 -0.500000
v 0.375000 2.500000 -0.375000
v 0.375000 2.500000 0.375000
v -0.375000 2.500000 0.375000
v -0.375000 2.500000 -0.375000
v 0.375000 2.500000 -0.375000
v 0.375000 2.500000 0.375000
v -0.375000 2.500000 0.375000
v -0.375000 2.500000 -0.375000
v 0.375000 3.000000 -0.375000
v 0.375000 3.000000 0.375000
v -0.375000 3.000000 0.375000
v -0.375000 3.000000 -0.375000
v 0.500000 3.250000 -0.500000
v 0.500000 3.250000 0.500000
v -0.500000 3.250000 0.500000
v -0.500000 3.250000 -0.500000
v 0.500000 3.500000 -0.500000
v 0.500000 3.500000 0.500000
v -0.500000 3.500000 0.500000
v -0.500000 3.500000 -0.500000
v -0.500000 1.125000 0.400000
v -0.500000 1.125000 -0.400000
v -0.500000 2.125000 0.400000
v -0.500000 2.125000 -0.400000
v -0.510000 1.125000 0.400000
v -0.510000 1.125000 -0.400000
v -0.510000 2.125000 0.400000
v -0.510000 2.125000 -0.400000
v -0.510000 1.150000 0.380000
v -0.510000 1.150000 -0.380000
v -0.510000 2.100000 0.380000
v -0.510000 2.100000 -0.380000
v -0.450000 1.150000 0.380000
v -0.450000 1.150000 -0.380000
v -0.450000 2.100000 0.380000
v -0.450000 2.100000 -0.380000
vt 0.500000 0.000000
vt 0.500000 1.000000
vt 0.000000 1.000000
vt 0.500000 0.062500
vt 0.500000 0.125000
vt 0.000000 0.125000
vt 0.000000 0.062500
vt 0.500000 0.187500
vt 0.000000 0.187500
vt 0.500000 0.250000
vt 0.500000 0.562500
vt 0.550781 0.509766
vt 0.550781 0.072266
vt 0.000000 0.250000
vt 0.500000 0.625000
vt 0.000000 0.625000
vt 0.000000 0.562500
vt 0.000000 0.000000
vt 0.500000 0.750000
vt 0.000000 0.750000
vt 0.500000 0.812500
vt 0.000000 0.812500
vt 0.500000 0.875000
vt 0.000000 0.875000
vt 0.667969 0.929688
vt 0.650391 0.929688
vt 0.650391 0.748047
vt 1.000000 0.019531
vt 0.949219 0.072266
vt 0.949219 0.509766
vt 1.000000 0.773438
vt 0.994141 0.767578
vt 0.994141 0.568359
vt 0.685547 0.929688
vt 0.667969 0.748047
vt 0.607422 0.808594
vt 0.628906 0.808594
vt 0.628906 0.929688
vt 0.650391 0.808594
vt 0.576172 0.562500
vt 0.650391 0.562500
vt 0.800781 0.562500
vt 0.806641 0.568359
vt 0.806641 0.767578
vt 0.800781 0.773438
vt 1.000000 0.562500
vt 0.576172 0.808594
vt 0.500000 0.808594
vt 0.724609 0.562500
vt 0.724609 0.748047
vt 0.500000 0.019531
vt 0.685547 0.748047
vt 0.607422 0.929688
vt 0.800781 0.748047
vn 0.000000 -1.000000 0.000000
vn -0.894400 0.447200 -0.000000
vn 1.000000 0.000000 0.000000
vn -0.000000 0.000000 1.000000
vn -1.000000 -0.000000 -0.000000
vn 0.000000 0.000000 -1.000000
vn -0.000000 0.447200 0.894400
vn 0.000000 0.447200 -0.894400
vn 0.894400 0.447200 0.000000
vn -0.894400 -0.447200 -0.000000
vn -0.000000 -0.447200 0.894400
vn 0.000000 -0.447200 -0.894400
vn 0.894400 -0.447200 0.000000
vn 0.000000 1.000000 0.000000
s off
f 2/1/1 3/2/1 4/3/1
f 7/4/2 11/5/2 12/6/2
f 5/1/3 6/4/3 2/7/3
f 6/1/4 7/4/4 3/7/4
f 7/1/5 8/4/5 4/7/5
f 1/1/6 4/4/6 8/7/6
f 11/5/5 15/8/5 16/9/5
f 7/7/7 6/4/7 10/5/7
f 8/4/8 12/5/8 9/6/8
f 5/4/9 9/5/9 10/6/9
f 16/9/10 15/8/10 19/10/10
f 10/5/4 14/8/4 15/9/4
f 12/5/6 16/8/6 13/9/6
f 9/5/3 13/8/3 14/9/3
f 23/11/5 47/12/5 45/13/5
f 14/8/11 18/10/11 19/14/11
f 16/8/12 20/10/12 17/14/12
f 13/8/13 17/10/13 18/14/13
f 23/11/2 27/15/2 28/16/2
f 18/10/4 22/11/4 23/17/4
f 20/10/6 24/11/6 21/17/6
f 17/10/3 21/11/3 22/17/3
f 28/18/4 27/1/4 31/2/4
f 22/11/7 26/15/7 27/16/7
f 21/17/8 24/11/8 28/15/8
f 21/11/9 25/15/9 26/16/9
f 31/15/5 35/19/5 36/20/5
f 27/18/4 26/1/4 30/2/4
f 25/18/4 28/1/4 32/2/4
f 26/18/4 25/1/4 29/2/4
f 35/19/10 39/21/10 40/22/10
f 30/15/4 34/19/4 35/20/4
f 32/15/6 36/19/6 33/20/6
f 29/15/3 33/19/3 34/20/3
f 39/21/5 43/23/5 44/24/5
f 34/19/11 38/21/11 39/22/11
f 36/19/12 40/21/12 37/22/12
f 34/20/13 33/19/13 37/21/13
f 44/1/14 43/2/14 42/3/14
f 38/21/4 42/23/4 43/24/4
f 40/21/6 44/23/6 41/24/6
f 37/21/3 41/23/3 42/24/3
f 47/25/4 51/26/4 49/27/4
f 20/28/5 46/29/5 48/30/5
f 24/11/5 48/12/5 47/30/5
f 19/28/5 45/29/5 46/13/5
f 51/31/5 55/32/5 53/33/5
f 46/34/6 50/25/6 52/35/6
f 48/36/14 52/37/14 51/38/14
f 45/37/1 49/39/1 50/26/1
f 55/40/6 59/41/6 57/39/6
f 50/42/5 54/43/5 56/44/5
f 52/45/5 56/44/5 55/32/5
f 50/42/5 49/46/5 53/33/5
f 57/29/5 59/30/5 60/12/5
f 54/47/4 58/48/4 60/11/4
f 56/41/1 60/49/1 59/50/1
f 54/50/14 53/49/14 57/42/14
f 1/18/1 2/1/1 4/3/1
f 8/7/2 7/4/2 12/6/2
f 1/18/3 5/1/3 2/7/3
f 2/18/4 6/1/4 3/7/4
f 3/18/5 7/1/5 4/7/5
f 5/18/6 1/1/6 8/7/6
f 12/6/5 11/5/5 16/9/5
f 11/6/7 7/7/7 10/5/7
f 5/7/8 8/4/8 9/6/8
f 6/7/9 5/4/9 10/6/9
f 20/14/10 16/9/10 19/10/10
f 11/6/4 10/5/4 15/9/4
f 9/6/6 12/5/6 13/9/6
f 10/6/3 9/5/3 14/9/3
f 19/51/5 23/11/5 45/13/5
f 15/9/11 14/8/11 19/14/11
f 13/9/12 16/8/12 17/14/12
f 14/9/13 13/8/13 18/14/13
f 24/17/2 23/11/2 28/16/2
f 19/14/4 18/10/4 23/17/4
f 17/14/6 20/10/6 21/17/6
f 18/14/3 17/10/3 22/17/3
f 32/3/4 28/18/4 31/2/4
f 23/17/7 22/11/7 27/16/7
f 25/16/8 21/17/8 28/15/8
f 22/17/9 21/11/9 26/16/9
f 32/16/5 31/15/5 36/20/5
f 31/3/4 27/18/4 30/2/4
f 29/3/4 25/18/4 32/2/4
f 30/3/4 26/18/4 29/2/4
f 36/20/10 35/19/10 40/22/10
f 31/16/4 30/15/4 35/20/4
f 29/16/6 32/15/6 33/20/6
f 30/16/3 29/15/3 34/20/3
f 40/22/5 39/21/5 44/24/5
f 35/20/11 34/19/11 39/22/11
f 33/20/12 36/19/12 37/22/12
f 38/22/13 34/20/13 37/21/13
f 41/18/14 44/1/14 42/3/14
f 39/22/4 38/21/4 43/24/4
f 37/22/6 40/21/6 41/24/6
f 38/22/3 37/21/3 42/24/3
f 45/35/4 47/25/4 49/27/4
f 24/46/5 20/28/5 48/30/5
f 23/46/5 24/11/5 47/30/5
f 20/51/5 19/28/5 46/13/5
f 49/46/5 51/31/5 53/33/5
f 48/52/6 46/34/6 52/35/6
f 47/53/14 48/36/14 51/38/14
f 46/38/1 45/37/1 50/26/1
f 53/47/6 55/40/6 57/39/6
f 52/45/5 50/42/5 56/44/5
f 51/31/5 52/45/5 55/32/5
f 54/43/5 50/42/5 53/33/5
f 58/13/5 57/29/5 60/12/5
f 56/40/4 54/47/4 60/11/4
f 55/27/1 56/41/1 59/50/1
f 58/54/14 54/50/14 57/42/14
