# Blender v2.74 (sub 0) OBJ File: 'handscreen.blend'
# www.blender.org
o Cube_Cube.001
v -0.210400 -0.100000 0.100000
v -0.210400 -0.100000 -0.100000
v -0.010400 -0.100000 0.100000
v -0.010400 -0.100000 -0.100000
v -0.210400 0.100000 0.100000
v -0.210400 0.100000 -0.100000
v -0.010400 0.100000 -0.100000
v -0.010400 0.100000 0.100000
v 0.039600 -0.200000 -0.300000
v 0.039600 -0.200000 0.300000
v 0.039600 0.200000 -0.300000
v 0.039600 0.200000 0.300000
v 0.040600 -0.600000 -0.900000
v 0.040600 -0.600000 0.900000
v 0.040600 0.600000 -0.900000
v 0.040600 0.600000 0.900000
v 0.140600 -0.600000 -0.900000
v 0.140600 -0.600000 0.900000
v 0.140600 0.600000 -0.900000
v 0.140600 0.600000 0.900000
vt 0.046875 0.312500
vt -0.000000 0.312500
vt 0.000000 0.359375
vt 0.046875 0.359375
vt 0.046875 0.203125
vt 0.250000 0.203125
vt 0.171875 0.125000
vt 0.171875 0.078125
vt 0.046875 0.000000
vt 0.125000 0.078125
vt 0.250000 0.000000
vt 0.125000 0.125000
vt 0.046875 1.000000
vt 1.000000 0.203125
vt 0.999999 1.000000
vt 0.000000 1.000000
vn 0.000000 -1.000000 0.000000
vn 0.000000 0.000000 1.000000
vn 0.000000 1.000000 0.000000
vn -0.970100 0.000000 -0.242500
vn 0.000000 0.000000 -1.000000
vn -1.000000 0.000000 0.000000
vn -1.000000 0.000000 -0.001700
vn -0.970100 0.000000 0.242500
vn -0.894400 0.447200 0.000000
vn -0.894400 -0.447200 0.000000
vn -1.000000 0.000000 0.001700
vn -1.000000 0.002500 0.000000
vn -1.000000 -0.002500 0.000000
vn 1.000000 0.000000 0.000000
s off
f 2/1/1 4/2/1 3/3/1
f 3/2/2 8/1/2 5/4/2
f 7/3/3 6/4/3 5/1/3
f 4/5/4 7/6/4 11/7/4
f 2/1/5 6/4/5 7/3/5
f 1/2/6 5/3/6 6/4/6
f 9/8/7 11/7/7 15/6/7
f 3/9/8 10/10/8 12/8/8
f 8/11/9 12/8/9 11/7/9
f 4/5/10 9/12/10 10/10/10
f 15/3/5 19/4/5 17/13/5
f 10/10/11 14/9/11 16/5/11
f 12/12/12 16/5/12 15/6/12
f 9/8/13 13/11/13 14/9/13
f 17/5/14 19/14/14 20/15/14
f 14/3/2 18/4/2 20/13/2
f 16/16/3 20/13/3 19/4/3
f 13/16/1 17/13/1 18/4/1
f 1/4/1 2/1/1 3/3/1
f 1/3/2 3/2/2 5/4/2
f 8/2/3 7/3/3 5/1/3
f 9/12/4 4/5/4 11/7/4
f 4/2/5 2/1/5 7/3/5
f 2/1/6 1/2/6 6/4/6
f 13/11/7 9/8/7 15/6/7
f 8/11/8 3/9/8 12/8/8
f 7/6/9 8/11/9 11/7/9
f 3/9/10 4/5/10 10/10/10
f 13/16/5 15/3/5 17/13/5
f 12/12/11 10/10/11 16/5/11
f 11/7/12 12/12/12 15/6/12
f 10/10/13 9/8/13 14/9/13
f 18/13/14 17/5/14 20/15/14
f 16/16/2 14/3/2 20/13/2
f 15/3/3 16/16/3 19/4/3
f 14/3/1 13/16/1 18/4/1
