# Blender v2.74 (sub 0) OBJ File: 'screwmain.blend'
# www.blender.org
o Cube
v 0.100000 -0.000000 -0.100000
v 0.100000 -0.000000 0.100000
v -0.100000 -0.000000 0.100000
v -0.100000 -0.000000 -0.100000
v 0.100000 0.200000 -0.100000
v 0.100000 0.200000 0.100000
v -0.100000 0.200000 0.100000
v -0.100000 0.200000 -0.100000
v 0.080000 0.250000 -0.080000
v 0.080000 0.250000 0.080000
v -0.080000 0.250000 -0.080000
v -0.080000 0.250000 0.080000
v 0.080000 0.300000 -0.080000
v 0.080000 0.300000 0.080000
v -0.080000 0.300000 -0.080000
v -0.080000 0.300000 0.080000
v 0.100000 0.350000 -0.100000
v 0.100000 0.350000 0.100000
v -0.100000 0.350000 -0.100000
v -0.100000 0.350000 0.100000
v 0.100000 0.550000 -0.100000
v 0.100000 0.550000 0.100000
v -0.100000 0.550000 -0.100000
v -0.100000 0.550000 0.100000
v 0.080000 0.600000 -0.080000
v 0.080000 0.600000 0.080000
v -0.080000 0.600000 -0.080000
v -0.080000 0.600000 0.080000
v 0.100000 0.650000 -0.100000
v 0.100000 0.650000 0.100000
v -0.100000 0.650000 -0.100000
v -0.100000 0.650000 0.100000
v 0.080000 0.700000 -0.080000
v 0.080000 0.700000 0.080000
v -0.080000 0.700000 -0.080000
v -0.080000 0.700000 0.080000
v 0.100000 0.750000 -0.100000
v 0.100000 0.750000 0.100000
v -0.100000 0.750000 -0.100000
v -0.100000 0.750000 0.100000
v 0.100000 1.350000 -0.100000
v 0.100000 1.350000 0.100000
v -0.100000 1.350000 -0.100000
v -0.100000 1.350000 0.100000
v 0.080000 1.400000 -0.080000
v 0.080000 1.400000 0.080000
v -0.080000 1.400000 -0.080000
v -0.080000 1.400000 0.080000
vt 1.000000 0.140625
vt 1.000000 0.179688
vt 0.750000 0.179688
vt 0.750000 0.140625
vt 0.500000 0.140986
vt 0.500000 0.000000
vt 0.500000 0.142785
vt 0.250000 0.142785
vt 0.250000 0.000000
vt 1.000000 0.000000
vt 0.000000 0.000000
vt 1.000000 0.210938
vt 0.750000 0.210938
vt 0.500000 0.179688
vt 0.250000 0.179688
vt 0.000000 0.179688
vt 1.000000 0.250000
vt 0.750000 0.250000
vt 0.500000 0.210938
vt 0.250000 0.210938
vt 0.000000 0.210938
vt 1.000000 0.390625
vt 0.750000 0.390625
vt 0.500000 0.250000
vt 0.250000 0.250000
vt 0.000000 0.250000
vt 1.000000 0.421875
vt 0.500000 0.390625
vt 0.250000 0.390625
vt 0.000000 0.390625
vt 1.000000 0.460938
vt 0.750000 0.460938
vt 0.500000 0.421875
vt 0.250000 0.421875
vt 0.750000 0.421875
vt 1.000000 0.492188
vt 0.750000 0.492188
vt 0.500000 0.460938
vt 0.250000 0.460938
vt 0.000000 0.460938
vt 1.000000 0.531250
vt 0.750000 0.531250
vt 0.500000 0.492188
vt 0.250000 0.492188
vt 0.000000 0.492188
vt 1.000000 0.968750
vt 0.750000 0.968750
vt 0.500000 0.531250
vt 0.250000 0.531250
vt 0.000000 0.531250
vt 1.000000 1.000000
vt 0.750000 1.000000
vt 0.500000 0.968750
vt 0.250000 0.968750
vt -0.000000 0.968750
vt 0.500000 1.000000
vt 0.250000 1.000000
vt 0.000000 1.000000
vt 0.750000 0.000000
vt 0.000000 0.142785
vt 0.000000 0.421875
vn -0.928500 0.371400 -0.000000
vn 1.000000 0.000000 0.000000
vn -0.000000 0.000000 1.000000
vn -1.000000 -0.000000 -0.000000
vn 0.000000 0.000000 -1.000000
vn -0.000000 0.371400 0.928500
vn 0.000000 0.371400 -0.928500
vn 0.928500 0.371400 0.000000
vn -0.928500 -0.371400 -0.000000
vn -0.000000 -0.371400 0.928500
vn 0.000000 -0.371400 -0.928500
vn 0.928500 -0.371400 0.000000
s off
f 7/1/1 12/2/1 11/3/1
f 5/4/2 6/5/2 2/6/2
f 6/7/3 7/8/3 3/9/3
f 3/10/4 7/1/4 8/4/4
f 1/11/5 4/9/5 8/8/5
f 12/2/4 16/12/4 15/13/4
f 6/7/6 10/14/6 12/15/6
f 8/8/7 11/15/7 9/16/7
f 5/4/8 9/3/8 10/14/8
f 16/12/9 20/17/9 19/18/9
f 10/14/3 14/19/3 16/20/3
f 11/15/5 15/20/5 13/21/5
f 9/3/2 13/13/2 14/19/2
f 20/17/4 24/22/4 23/23/4
f 14/19/10 18/24/10 20/25/10
f 15/20/11 19/25/11 17/26/11
f 14/19/12 13/13/12 17/18/12
f 23/23/1 24/22/1 28/27/1
f 18/24/3 22/28/3 24/29/3
f 19/25/5 23/29/5 21/30/5
f 17/18/2 21/23/2 22/28/2
f 28/27/9 32/31/9 31/32/9
f 24/29/6 22/28/6 26/33/6
f 21/30/7 23/29/7 27/34/7
f 21/23/8 25/35/8 26/33/8
f 32/31/1 36/36/1 35/37/1
f 26/33/10 30/38/10 32/39/10
f 27/34/11 31/39/11 29/40/11
f 25/35/12 29/32/12 30/38/12
f 36/36/9 40/41/9 39/42/9
f 30/38/6 34/43/6 36/44/6
f 31/39/7 35/44/7 33/45/7
f 29/32/8 33/37/8 34/43/8
f 40/41/4 44/46/4 43/47/4
f 34/43/10 38/48/10 40/49/10
f 35/44/11 39/49/11 37/50/11
f 33/37/12 37/42/12 38/48/12
f 44/46/1 48/51/1 47/52/1
f 38/48/3 42/53/3 44/54/3
f 39/49/5 43/54/5 41/55/5
f 37/42/2 41/47/2 42/53/2
f 44/54/6 42/53/6 46/56/6
f 43/54/7 47/57/7 45/58/7
f 42/53/8 41/47/8 45/52/8
f 8/4/1 7/1/1 11/3/1
f 1/59/2 5/4/2 2/6/2
f 2/6/3 6/7/3 3/9/3
f 4/59/4 3/10/4 8/4/4
f 5/60/5 1/11/5 8/8/5
f 11/3/4 12/2/4 15/13/4
f 7/8/6 6/7/6 12/15/6
f 5/60/7 8/8/7 9/16/7
f 6/5/8 5/4/8 10/14/8
f 15/13/9 16/12/9 19/18/9
f 12/15/3 10/14/3 16/20/3
f 9/16/5 11/15/5 13/21/5
f 10/14/2 9/3/2 14/19/2
f 19/18/4 20/17/4 23/23/4
f 16/20/10 14/19/10 20/25/10
f 13/21/11 15/20/11 17/26/11
f 18/24/12 14/19/12 17/18/12
f 27/35/1 23/23/1 28/27/1
f 20/25/3 18/24/3 24/29/3
f 17/26/5 19/25/5 21/30/5
f 18/24/2 17/18/2 22/28/2
f 27/35/9 28/27/9 31/32/9
f 28/34/6 24/29/6 26/33/6
f 25/61/7 21/30/7 27/34/7
f 22/28/8 21/23/8 26/33/8
f 31/32/1 32/31/1 35/37/1
f 28/34/10 26/33/10 32/39/10
f 25/61/11 27/34/11 29/40/11
f 26/33/12 25/35/12 30/38/12
f 35/37/9 36/36/9 39/42/9
f 32/39/6 30/38/6 36/44/6
f 29/40/7 31/39/7 33/45/7
f 30/38/8 29/32/8 34/43/8
f 39/42/4 40/41/4 43/47/4
f 36/44/10 34/43/10 40/49/10
f 33/45/11 35/44/11 37/50/11
f 34/43/12 33/37/12 38/48/12
f 43/47/1 44/46/1 47/52/1
f 40/49/3 38/48/3 44/54/3
f 37/50/5 39/49/5 41/55/5
f 38/48/2 37/42/2 42/53/2
f 48/57/6 44/54/6 46/56/6
f 41/55/7 43/54/7 45/58/7
f 46/56/8 42/53/8 45/52/8
