# Blender v2.74 (sub 0) OBJ File: 'twelvscrew.blend'
# www.blender.org
o Cube_Cube.001
v -0.075000 -0.000000 0.075000
v -0.100000 0.100000 0.100000
v -0.075000 -0.000000 -0.075000
v -0.100000 0.100000 -0.100000
v 0.075000 -0.000000 0.075000
v 0.100000 0.100000 0.100000
v 0.075000 -0.000000 -0.075000
v 0.100000 0.100000 -0.100000
v -0.100000 0.520000 0.100000
v -0.100000 0.520000 -0.100000
v 0.100000 0.520000 -0.100000
v 0.100000 0.520000 0.100000
v -0.100000 -0.100000 -0.100000
v -0.100000 -0.100000 0.100000
v 0.100000 -0.100000 -0.100000
v 0.100000 -0.100000 0.100000
v -0.100000 -0.120000 -0.100000
v -0.100000 -0.120000 0.100000
v 0.100000 -0.120000 -0.100000
v 0.100000 -0.120000 0.100000
v -0.090000 -0.370000 -0.090000
v -0.090000 -0.370000 0.090000
v 0.090000 -0.370000 -0.090000
v 0.090000 -0.370000 0.090000
v -0.090000 -0.490000 -0.090000
v -0.090000 -0.490000 0.090000
v 0.090000 -0.490000 -0.090000
v 0.090000 -0.490000 0.090000
v -0.080000 0.520000 0.080000
v -0.080000 0.520000 -0.080000
v 0.080000 0.520000 -0.080000
v 0.080000 0.520000 0.080000
v -0.033333 0.520000 -0.100000
v 0.033333 0.520000 -0.100000
v -0.026667 0.520000 -0.080000
v 0.026667 0.520000 -0.080000
v -0.100000 0.520000 0.033333
v -0.100000 0.520000 -0.033333
v -0.080000 0.520000 0.026667
v -0.080000 0.520000 -0.026667
v -0.026667 0.750000 0.080000
v 0.026667 0.750000 0.080000
v -0.033333 0.750000 0.100000
v 0.033333 0.750000 0.100000
v 0.080000 0.750000 0.026667
v 0.080000 0.750000 -0.026667
v 0.100000 0.750000 0.033333
v 0.100000 0.750000 -0.033333
v 0.100000 0.520000 -0.033333
v 0.100000 0.520000 0.033333
v 0.080000 0.520000 -0.026667
v 0.080000 0.520000 0.026667
v -0.080000 0.750000 -0.026667
v -0.080000 0.750000 0.026667
v -0.100000 0.750000 -0.033333
v -0.100000 0.750000 0.033333
v 0.026667 0.750000 -0.080000
v -0.026667 0.750000 -0.080000
v 0.033333 0.750000 -0.100000
v -0.033333 0.750000 -0.100000
v 0.033333 0.520000 0.100000
v -0.033333 0.520000 0.100000
v 0.026667 0.520000 0.080000
v -0.026667 0.520000 0.080000
v 0.120000 0.900000 0.053333
v 0.100000 0.900000 0.046667
v 0.120000 0.900000 -0.053333
v 0.100000 0.900000 -0.046667
v 0.053333 0.900000 -0.120000
v 0.046667 0.900000 -0.100000
v -0.053333 0.900000 -0.120000
v -0.046667 0.900000 -0.100000
v -0.053333 0.900000 0.120000
v -0.046667 0.900000 0.100000
v -0.120000 0.900000 -0.053333
v -0.100000 0.900000 -0.046667
v 0.053333 0.900000 0.120000
v 0.046667 0.900000 0.100000
v -0.120000 0.900000 0.053333
v -0.100000 0.900000 0.046667
v 0.062400 0.700000 0.020800
v 0.049920 0.700000 0.016640
v 0.062400 0.700000 -0.020800
v 0.049920 0.700000 -0.016640
v 0.020800 0.700000 -0.062400
v 0.016640 0.700000 -0.049920
v -0.020800 0.700000 -0.062400
v -0.016640 0.700000 -0.049920
v -0.020800 0.700000 0.062400
v -0.016640 0.700000 0.049920
v -0.062400 0.700000 -0.020800
v -0.049920 0.700000 -0.016640
v 0.020800 0.700000 0.062400
v 0.016640 0.700000 0.049920
v -0.062400 0.700000 0.020800
v -0.049920 0.700000 0.016640
v -0.080000 0.520000 -0.026667
v -0.080000 0.520000 -0.080000
v 0.026667 0.520000 -0.080000
v 0.080000 0.520000 -0.080000
v 0.080000 0.520000 0.026667
v 0.080000 0.520000 0.080000
v -0.026667 0.520000 -0.080000
v -0.080000 0.520000 0.080000
v -0.080000 0.520000 0.026667
v 0.080000 0.520000 -0.026667
v -0.026667 0.520000 0.080000
v 0.026667 0.520000 0.080000
v -0.051200 0.520000 -0.051200
v 0.051200 0.520000 -0.051200
v 0.051200 0.520000 0.051200
v -0.051200 0.520000 0.051200
vt 0.125000 0.187500
vt 0.125000 0.296875
vt 0.000000 0.296875
vt 0.000000 0.406250
vt 0.265625 0.546875
vt 0.125000 0.546875
vt 0.171875 0.750000
vt -0.000000 0.453125
vt 0.015625 0.421875
vt 0.218750 0.750000
vt 0.000000 0.750000
vt 0.000000 0.718750
vt 0.125000 0.718750
vt 0.000000 1.000000
vt 0.125000 0.750000
vt 0.000000 0.531250
vt 0.125000 0.531250
vt 0.125000 0.406250
vt 0.000000 0.000000
vt 1.000000 0.000000
vt 1.000000 1.000000
vt 0.265625 0.406250
vt 0.140625 0.937500
vt 0.140625 0.750000
vt 0.125000 0.453125
vt 0.109375 0.453125
vt 0.109375 0.421875
vt 0.125000 0.484375
vt 0.109375 0.515625
vt 0.296875 0.750000
vt 0.250000 0.750000
vt 0.250000 0.937500
vt 0.218750 0.937500
vt 0.078125 0.531250
vt 0.078125 0.515625
vt 0.171875 0.937500
vt 0.015625 0.515625
vt 0.046875 0.515625
vt 0.046875 0.531250
vt 0.046875 0.406250
vt 0.046875 0.421875
vt 0.078125 0.421875
vt 0.078125 0.406250
vt -0.000000 0.484375
vt 0.015625 0.484375
vt 0.265625 0.750000
vt 0.359375 0.750000
vt 0.359375 0.562500
vt 0.406250 0.750000
vt 0.406250 0.593750
vt 0.359375 0.531250
vt 0.359375 0.593750
vt 0.421875 0.593750
vt 0.421875 0.531250
vt 0.375000 0.406250
vt 0.281250 0.406250
vt 0.265625 0.562500
vt 0.156250 0.546875
vt 0.234375 0.406250
vt 0.125000 0.437500
vt 0.359375 0.406250
vt 0.015625 0.453125
vt 0.265625 0.265625
vt 0.125000 0.109375
vt 0.265625 0.109375
vt 0.265625 0.250000
vt 0.265625 0.062500
vt 0.125000 0.062500
vt 0.125000 0.203125
vt 0.125000 0.078125
vt 0.250000 0.203125
vt 0.250000 0.078125
vt 0.109375 0.484375
vt 0.265625 0.218750
vt 0.125000 0.218750
vt 0.125000 0.359375
vt 0.125000 0.265625
vt 0.218750 0.062500
vt 0.125000 0.171875
vt 0.125000 0.140625
vt 0.125000 0.281250
vt 0.265625 0.281250
vt 0.000000 0.187500
vt 0.125000 1.000000
vt 0.296875 0.937500
vt 0.234375 0.546875
vt 0.265625 0.515625
vt 0.125000 0.515625
vt 0.156250 0.406250
vt 0.265625 0.437500
vt 0.125000 0.250000
vt 0.265625 0.203125
vt 0.265625 0.359375
vt 0.265625 0.140625
vn -0.970100 -0.242500 0.000000
vn 0.000000 -0.242500 -0.970100
vn 0.970100 -0.242500 0.000000
vn 0.000000 -0.242500 0.970100
vn 0.000000 0.242500 0.970100
vn 0.000000 0.000000 1.000000
vn 0.000000 1.000000 0.000000
vn 1.000000 0.000000 0.000000
vn 0.000000 0.000000 -1.000000
vn -1.000000 0.000000 0.000000
vn 0.970100 0.242500 0.000000
vn 0.000000 0.242500 -0.970100
vn -0.970100 0.242500 0.000000
vn 0.000000 -0.040000 0.999200
vn 0.999200 -0.040000 0.000000
vn 0.000000 -0.040000 -0.999200
vn -0.999200 -0.040000 0.000000
vn 0.000000 -1.000000 0.000000
vn 0.948700 0.000000 0.316200
vn -0.948700 0.000000 -0.316200
vn 0.948700 0.000000 -0.316200
vn -0.948700 0.000000 0.316200
vn -0.316200 0.000000 0.948700
vn -0.316200 0.000000 -0.948700
vn 0.316200 0.000000 0.948700
vn 0.316200 0.000000 -0.948700
vn 0.694900 0.185300 0.694900
vn 0.694900 0.185300 -0.694900
vn -0.315100 0.084000 0.945300
vn 0.315100 0.084000 -0.945300
vn -0.945300 0.084000 -0.315100
vn -0.694900 0.185300 0.694900
vn -0.694900 0.185300 -0.694900
vn -0.315100 0.084000 -0.945300
vn 0.315100 0.084000 0.945300
vn -0.945300 0.084000 0.315100
vn 0.945300 0.084000 0.315100
vn -0.694900 -0.185300 0.694900
vn 0.945300 0.084000 -0.315100
vn -0.694900 -0.185300 -0.694900
vn 0.694900 -0.185300 -0.694900
vn 0.694900 -0.185300 0.694900
vn 0.615100 0.493400 0.615100
vn 0.615100 0.493400 -0.615100
vn -0.615100 0.493400 0.615100
vn -0.615100 0.493400 -0.615100
vn -0.576800 -0.578400 0.576800
vn -0.576800 -0.578400 -0.576800
vn 0.576800 -0.578400 -0.576800
vn 0.576800 -0.578400 0.576800
vn -0.705100 0.075200 0.705100
vn -0.998100 -0.062100 0.000000
vn 0.000000 -0.062100 0.998100
vn -0.705100 0.075200 -0.705100
vn 0.000000 -0.062100 -0.998100
vn 0.705100 0.075200 -0.705100
vn 0.705100 0.075200 0.705100
vn 0.998100 -0.062100 0.000000
s off
f 4/1/1 3/2/1 1/3/1
f 8/1/2 7/2/2 3/3/2
f 6/1/3 5/2/3 7/3/3
f 2/1/4 1/2/4 5/3/4
f 1/4/5 14/3/5 16/2/5
f 2/5/6 6/6/6 61/7/6
f 61/8/7 12/4/7 32/9/7
f 6/6/8 8/5/8 49/10/8
f 8/6/9 4/5/9 33/10/9
f 4/6/10 2/5/10 37/10/10
f 14/11/6 18/12/6 20/13/6
f 5/4/11 16/3/11 15/2/11
f 7/4/12 15/3/12 13/2/12
f 3/4/13 13/3/13 14/2/13
f 18/14/14 22/11/14 24/15/14
f 16/11/8 20/12/8 19/13/8
f 15/11/9 19/12/9 17/13/9
f 13/11/10 17/12/10 18/13/10
f 22/11/6 26/16/6 28/17/6
f 20/14/15 24/11/15 23/15/15
f 19/14/16 23/11/16 21/15/16
f 17/14/17 21/11/17 22/15/17
f 25/16/18 27/4/18 28/18/18
f 24/11/8 28/16/8 27/17/8
f 23/11/9 27/16/9 25/17/9
f 21/11/10 25/16/10 26/17/10
f 64/19/6 63/20/6 108/21/6
f 57/6/18 58/5/18 60/22/18
f 34/23/19 59/24/19 57/7/19
f 34/25/7 36/26/7 31/27/7
f 62/23/20 43/24/20 41/7/20
f 33/28/7 10/17/7 30/29/7
f 42/30/6 41/31/6 64/32/6
f 63/33/21 42/10/21 44/31/21
f 38/34/7 40/35/7 30/29/7
f 35/33/22 58/10/22 60/31/22
f 50/23/23 47/24/23 45/7/23
f 37/7/10 56/36/10 55/33/10
f 29/37/7 39/38/7 37/39/7
f 40/32/8 53/31/8 54/30/8
f 41/6/18 42/5/18 44/22/18
f 55/6/18 53/5/18 54/22/18
f 50/40/7 52/41/7 32/9/7
f 51/33/24 46/10/24 48/31/24
f 33/7/9 60/36/9 59/33/9
f 39/33/25 54/10/25 56/31/25
f 31/27/7 51/42/7 49/43/7
f 47/6/18 45/5/18 46/22/18
f 62/44/7 64/45/7 29/37/7
f 36/32/6 57/31/6 58/30/6
f 61/7/6 44/36/6 43/33/6
f 52/32/10 45/31/10 46/30/10
f 38/23/26 55/24/26 53/7/26
f 49/7/8 48/36/8 47/33/8
f 72/46/27 76/47/27 53/48/27
f 80/46/28 74/47/28 41/48/28
f 76/47/29 75/49/29 55/50/29
f 66/47/30 65/49/30 47/50/30
f 66/51/7 78/52/7 77/53/7
f 70/51/7 68/52/7 67/53/7
f 75/52/7 76/53/7 72/54/7
f 73/52/7 74/53/7 80/54/7
f 70/47/31 69/49/31 59/50/31
f 68/46/32 70/47/32 57/48/32
f 78/46/33 66/47/33 45/48/33
f 56/52/34 79/47/34 80/49/34
f 48/52/35 67/47/35 68/49/35
f 44/52/36 77/47/36 78/49/36
f 74/47/37 73/49/37 43/50/37
f 73/46/38 79/47/38 56/48/38
f 60/52/39 71/47/39 72/49/39
f 75/46/40 71/47/40 60/48/40
f 69/46/41 67/47/41 48/48/41
f 65/46/42 77/47/42 44/48/42
f 92/55/43 88/56/43 58/57/43
f 41/48/44 90/55/44 96/56/44
f 91/50/23 92/52/23 53/47/23
f 81/50/26 82/52/26 45/47/26
f 96/58/7 84/59/7 88/60/7
f 85/50/20 86/52/20 57/47/20
f 86/55/45 84/56/45 46/57/45
f 82/55/46 94/56/46 42/57/46
f 54/49/24 96/50/24 95/52/24
f 46/49/25 84/50/25 83/52/25
f 42/49/22 94/50/22 93/52/22
f 89/50/19 90/52/19 41/47/19
f 56/22/47 95/57/47 89/48/47
f 58/49/21 88/50/21 87/52/21
f 87/57/48 91/48/48 55/61/48
f 48/22/49 83/57/49 85/48/49
f 93/57/50 81/48/50 47/61/50
f 112/37/7 108/62/7 111/9/7
f 63/19/6 32/20/6 102/21/6
f 29/19/6 64/20/6 107/21/6
f 52/19/6 51/20/6 106/21/6
f 51/19/6 31/20/6 100/21/6
f 40/19/6 39/20/6 105/21/6
f 39/19/6 29/20/6 104/21/6
f 36/19/6 35/20/6 103/21/6
f 35/19/6 30/20/6 98/21/6
f 32/19/6 52/20/6 101/21/6
f 31/19/6 36/20/6 99/21/6
f 30/19/6 40/20/6 97/21/6
f 112/14/18 109/21/18 110/20/18
f 112/22/51 89/63/51 95/18/51
f 112/64/52 95/65/52 91/66/52
f 111/9/7 106/42/7 110/27/7
f 89/67/53 112/68/53 111/69/53
f 109/29/7 105/38/7 112/37/7
f 109/70/54 91/71/54 87/72/54
f 110/27/7 103/73/7 109/29/7
f 85/74/55 110/75/55 109/76/55
f 85/63/56 83/18/56 110/77/56
f 93/78/57 111/68/57 81/79/57
f 94/6/7 90/5/7 89/22/7
f 81/80/58 111/81/58 110/82/58
f 83/22/7 84/5/7 82/6/7
f 88/6/7 86/5/7 85/22/7
f 96/6/7 92/5/7 91/22/7
f 2/83/1 4/1/1 1/3/1
f 4/83/2 8/1/2 3/3/2
f 8/83/3 6/1/3 7/3/3
f 6/83/4 2/1/4 5/3/4
f 5/18/5 1/4/5 16/2/5
f 62/10/6 9/46/6 2/5/6
f 2/5/6 61/7/6 62/10/6
f 61/7/6 6/6/6 12/15/6
f 63/62/7 61/8/7 32/9/7
f 50/7/8 12/15/8 6/6/8
f 8/5/8 11/46/8 49/10/8
f 49/10/8 50/7/8 6/6/8
f 34/7/9 11/15/9 8/6/9
f 8/6/9 33/10/9 34/7/9
f 33/10/9 4/5/9 10/46/9
f 38/7/10 10/15/10 4/6/10
f 2/5/10 9/46/10 37/10/10
f 37/10/10 38/7/10 4/6/10
f 16/15/6 14/11/6 20/13/6
f 7/18/11 5/4/11 15/2/11
f 3/18/12 7/4/12 13/2/12
f 1/18/13 3/4/13 14/2/13
f 20/84/14 18/14/14 24/15/14
f 15/15/8 16/11/8 19/13/8
f 13/15/9 15/11/9 17/13/9
f 14/15/10 13/11/10 18/13/10
f 24/15/6 22/11/6 28/17/6
f 19/84/15 20/14/15 23/15/15
f 17/84/16 19/14/16 21/15/16
f 18/84/17 17/14/17 22/15/17
f 26/17/18 25/16/18 28/18/18
f 23/15/8 24/11/8 27/17/8
f 21/15/9 23/11/9 25/17/9
f 22/15/10 21/11/10 26/17/10
f 107/14/6 64/19/6 108/21/6
f 59/18/18 57/6/18 60/22/18
f 36/36/19 34/23/19 57/7/19
f 11/18/7 34/25/7 31/27/7
f 64/36/20 62/23/20 41/7/20
f 35/73/7 33/28/7 30/29/7
f 63/85/6 42/30/6 64/32/6
f 61/32/21 63/33/21 44/31/21
f 10/17/7 38/34/7 30/29/7
f 33/32/22 35/33/22 60/31/22
f 52/36/23 50/23/23 45/7/23
f 38/10/10 37/7/10 55/33/10
f 9/16/7 29/37/7 37/39/7
f 39/85/8 40/32/8 54/30/8
f 43/18/18 41/6/18 44/22/18
f 56/18/18 55/6/18 54/22/18
f 12/4/7 50/40/7 32/9/7
f 49/32/24 51/33/24 48/31/24
f 34/10/9 33/7/9 59/33/9
f 37/32/25 39/33/25 56/31/25
f 11/18/7 31/27/7 49/43/7
f 48/18/18 47/6/18 46/22/18
f 9/16/7 62/44/7 29/37/7
f 35/85/6 36/32/6 58/30/6
f 62/10/6 61/7/6 43/33/6
f 51/85/10 52/32/10 46/30/10
f 40/36/26 38/23/26 53/7/26
f 50/10/8 49/7/8 47/33/8
f 58/57/27 72/46/27 53/48/27
f 54/57/28 80/46/28 41/48/28
f 53/52/29 76/47/29 55/50/29
f 45/52/30 66/47/30 47/50/30
f 65/54/7 66/51/7 77/53/7
f 69/54/7 70/51/7 67/53/7
f 71/51/7 75/52/7 72/54/7
f 79/51/7 73/52/7 80/54/7
f 57/52/31 70/47/31 59/50/31
f 46/57/32 68/46/32 57/48/32
f 42/57/33 78/46/33 45/48/33
f 54/50/34 56/52/34 80/49/34
f 46/50/35 48/52/35 68/49/35
f 42/50/36 44/52/36 78/49/36
f 41/52/37 74/47/37 43/50/37
f 43/57/38 73/46/38 56/48/38
f 58/50/39 60/52/39 72/49/39
f 55/57/40 75/46/40 60/48/40
f 59/57/41 69/46/41 48/48/41
f 47/57/42 65/46/42 44/48/42
f 53/48/43 92/55/43 58/57/43
f 54/57/44 41/48/44 96/56/44
f 55/49/23 91/50/23 53/47/23
f 47/49/26 81/50/26 45/47/26
f 96/58/7 90/86/7 94/87/7
f 88/60/7 92/88/7 96/58/7
f 84/59/7 86/89/7 88/60/7
f 94/87/7 82/90/7 84/59/7
f 84/59/7 96/58/7 94/87/7
f 59/49/20 85/50/20 57/47/20
f 57/48/45 86/55/45 46/57/45
f 45/48/46 82/55/46 42/57/46
f 56/47/24 54/49/24 95/52/24
f 48/47/25 46/49/25 83/52/25
f 44/47/22 42/49/22 93/52/22
f 43/49/19 89/50/19 41/47/19
f 43/61/47 56/22/47 89/48/47
f 60/47/21 58/49/21 87/52/21
f 60/22/48 87/57/48 55/61/48
f 59/61/49 48/22/49 85/48/49
f 44/22/50 93/57/50 47/61/50
f 107/45/7 112/37/7 104/37/7
f 108/62/7 102/9/7 111/9/7
f 112/37/7 107/45/7 108/62/7
f 108/14/6 63/19/6 102/21/6
f 104/14/6 29/19/6 107/21/6
f 101/14/6 52/19/6 106/21/6
f 106/14/6 51/19/6 100/21/6
f 97/14/6 40/19/6 105/21/6
f 105/14/6 39/19/6 104/21/6
f 99/14/6 36/19/6 103/21/6
f 103/14/6 35/19/6 98/21/6
f 102/14/6 32/19/6 101/21/6
f 100/14/6 31/19/6 99/21/6
f 98/14/6 30/19/6 97/21/6
f 111/19/18 112/14/18 110/20/18
f 109/91/52 112/64/52 91/66/52
f 101/41/7 111/9/7 102/9/7
f 106/42/7 100/27/7 110/27/7
f 111/9/7 101/41/7 106/42/7
f 93/92/53 89/67/53 111/69/53
f 97/35/7 109/29/7 98/29/7
f 105/38/7 104/37/7 112/37/7
f 109/29/7 97/35/7 105/38/7
f 99/26/7 110/27/7 100/27/7
f 103/73/7 98/29/7 109/29/7
f 110/27/7 99/26/7 103/73/7
f 87/93/55 85/74/55 109/76/55
f 93/18/7 94/6/7 89/22/7
f 83/94/58 81/80/58 110/82/58
f 81/18/7 83/22/7 82/6/7
f 87/18/7 88/6/7 85/22/7
f 95/18/7 96/6/7 91/22/7
