# Blender v2.74 (sub 0) OBJ File: 'slider.blend'
# www.blender.org
o Slider
v -0.037500 0.052500 0.075000
v -0.037500 0.077500 0.075000
v -0.037500 0.052500 -0.075000
v -0.037500 0.077500 -0.075000
v 0.037500 0.052500 0.075000
v 0.037500 0.077500 0.075000
v 0.037500 0.052500 -0.075000
v 0.037500 0.077500 -0.075000
v -0.037500 0.052500 -0.050000
v -0.037500 0.052500 0.050000
v 0.037500 0.052500 0.050000
v 0.037500 0.052500 -0.050000
v -0.025000 0.052500 0.050000
v 0.025000 0.052500 0.050000
v -0.025000 0.052500 -0.050000
v 0.025000 0.052500 -0.050000
v -0.025000 0.027500 0.050000
v 0.025000 0.027500 0.050000
v -0.025000 0.027500 -0.050000
v 0.025000 0.027500 -0.050000
vt 0.375000 0.812500
vt 0.000000 0.812500
vt 0.343750 0.687500
vt 0.562500 0.687500
vt 0.562500 0.812500
vt 0.312500 0.687500
vt 0.375000 0.687500
vt 0.375000 1.000000
vt -0.000000 1.000000
vt -0.000000 0.687500
vt 0.031250 0.687500
vt 0.062500 0.687500
vn -1.000000 0.000000 0.000000
vn 0.000000 0.000000 -1.000000
vn 1.000000 0.000000 0.000000
vn 0.000000 0.000000 1.000000
vn 0.000000 1.000000 0.000000
vn 0.000000 -1.000000 0.000000
s off
f 2/1/1 4/2/1 10/3/1
f 8/4/2 7/5/2 3/1/2
f 8/1/3 6/2/3 12/6/3
f 2/1/4 1/7/4 5/4/4
f 8/1/5 4/8/5 2/9/5
f 18/1/3 20/2/3 16/10/3
f 13/1/4 17/7/4 18/4/4
f 15/7/1 19/1/1 17/2/1
f 19/1/6 20/8/6 18/9/6
f 5/9/6 1/2/6 3/1/6
f 16/4/2 20/5/2 19/1/2
f 10/3/1 1/7/1 2/1/1
f 4/2/1 9/11/1 10/3/1
f 9/11/1 4/2/1 3/10/1
f 4/7/2 8/4/2 3/1/2
f 12/6/3 7/7/3 8/1/3
f 6/2/3 11/12/3 12/6/3
f 11/12/3 6/2/3 5/10/3
f 6/5/4 2/1/4 5/4/4
f 6/2/5 8/1/5 2/9/5
f 14/7/3 18/1/3 16/10/3
f 14/5/4 13/1/4 18/4/4
f 13/10/1 15/7/1 17/2/1
f 17/2/6 19/1/6 18/9/6
f 7/8/6 5/9/6 3/1/6
f 15/7/2 16/4/2 19/1/2
l 14 11
l 16 12
l 10 13
l 9 15
o Groove
v -0.500000 -0.050000 0.100000
v -0.500000 0.050000 0.100000
v -0.500000 -0.050000 -0.100000
v -0.500000 0.050000 -0.100000
v 0.500000 -0.050000 0.100000
v 0.500000 0.050000 0.100000
v 0.500000 -0.050000 -0.100000
v 0.500000 0.050000 -0.100000
v -0.450000 0.050000 0.050000
v -0.450000 0.050000 -0.050000
v 0.450000 0.050000 -0.050000
v 0.450000 0.050000 0.050000
v -0.450000 0.000000 0.050000
v -0.450000 0.000000 -0.050000
v 0.450000 0.000000 -0.050000
v 0.450000 0.000000 0.050000
v -0.450000 0.050000 0.050000
v 0.450000 0.050000 0.050000
v -0.450000 0.000000 0.050000
v 0.450000 0.000000 0.050000
vt 1.000000 -0.000000
vt 1.000000 0.125000
vt 0.750000 0.125000
vt 0.875000 0.125000
vt 1.000000 1.000000
vt 0.875000 1.000000
vt 0.625000 1.000000
vt 0.625000 0.125000
vt 0.812500 0.937500
vt 0.812500 0.187500
vt 0.687500 0.187500
vt 0.687500 0.937500
vt 0.562500 0.125000
vt 0.562500 0.000000
vt 0.750000 0.000000
vt 0.000000 0.125000
vt 0.000024 0.000024
vt 0.500000 0.125000
vt 0.500000 0.000000
vn -1.000000 0.000000 0.000000
vn 0.000000 0.000000 -1.000000
vn 1.000000 0.000000 0.000000
vn 0.000000 0.000000 1.000000
vn 0.000000 -1.000000 0.000000
vn 0.000000 1.000000 0.000000
s off
f 24/13/7 23/14/7 21/15/7
f 28/16/8 27/14/8 23/17/8
f 26/13/9 25/14/9 27/15/9
f 22/17/10 21/18/10 25/16/10
f 23/19/11 27/20/11 25/16/11
f 30/21/12 24/18/12 22/19/12
f 30/21/12 31/22/12 28/16/12
f 32/23/12 26/20/12 28/16/12
f 32/23/12 29/24/12 22/19/12
f 35/22/12 34/21/12 33/24/12
f 31/25/7 35/26/7 36/27/7
f 30/28/10 34/29/10 35/27/10
f 29/30/9 33/31/9 34/27/9
f 38/28/8 40/29/8 39/27/8
f 22/27/7 24/13/7 21/15/7
f 24/18/8 28/16/8 23/17/8
f 28/27/9 26/13/9 27/15/9
f 26/14/10 22/17/10 25/16/10
f 21/18/11 23/19/11 25/16/11
f 29/24/12 30/21/12 22/19/12
f 24/18/12 30/21/12 28/16/12
f 31/22/12 32/23/12 28/16/12
f 26/20/12 32/23/12 22/19/12
f 36/23/12 35/22/12 33/24/12
f 32/15/7 31/25/7 36/27/7
f 31/15/10 30/28/10 35/27/10
f 30/15/9 29/30/9 34/27/9
f 37/15/8 38/28/8 39/27/8
