# Blender v2.74 (sub 0) OBJ File: 'toggle.blend'
# www.blender.org
o Cube
v -0.100000 -0.025000 0.100000
v -0.100000 0.025000 0.100000
v -0.100000 -0.025000 -0.100000
v -0.100000 0.025000 -0.100000
v 0.100000 -0.025000 0.100000
v 0.100000 0.025000 0.100000
v 0.100000 -0.025000 -0.100000
v 0.100000 0.025000 -0.100000
v -0.040000 0.025000 0.040000
v -0.040000 0.025000 -0.040000
v 0.040000 0.025000 -0.040000
v 0.040000 0.025000 0.040000
v -0.040000 0.005000 0.040000
v -0.040000 0.005000 -0.040000
v 0.040000 0.005000 -0.040000
v 0.040000 0.005000 0.040000
vt 0.000000 1.000000
vt 0.000000 0.875000
vt 0.500000 0.875000
vt 0.500000 0.500000
vt 0.500000 1.000000
vt 0.687500 0.875000
vt 0.156250 0.156250
vt 0.156250 0.343750
vt 0.000000 0.500000
vt 0.343750 0.343750
vt 0.343750 0.156250
vt 0.500000 0.000000
vt 0.000000 0.000000
vt 0.687500 1.000000
vn -1.000000 0.000000 0.000000
vn 0.000000 0.000000 -1.000000
vn 1.000000 0.000000 0.000000
vn 0.000000 0.000000 1.000000
vn 0.000000 -1.000000 0.000000
vn 0.000000 1.000000 0.000000
s off
f 4/1/1 3/2/1 1/3/1
f 8/1/2 7/2/2 3/3/2
f 6/1/3 5/2/3 7/3/3
f 2/1/4 1/2/4 5/3/4
f 3/4/5 7/5/5 5/1/5
f 12/5/2 16/3/2 13/6/2
f 9/7/6 10/8/6 4/9/6
f 10/8/6 11/10/6 8/4/6
f 11/10/6 12/11/6 6/12/6
f 12/11/6 9/7/6 2/13/6
f 15/10/6 14/8/6 13/7/6
f 11/5/1 15/3/1 16/6/1
f 10/5/4 14/3/4 15/6/4
f 9/5/3 13/3/3 14/6/3
f 2/5/1 4/1/1 1/3/1
f 4/5/2 8/1/2 3/3/2
f 8/5/3 6/1/3 7/3/3
f 6/5/4 2/1/4 5/3/4
f 1/9/5 3/4/5 5/1/5
f 9/14/2 12/5/2 13/6/2
f 2/13/6 9/7/6 4/9/6
f 4/9/6 10/8/6 8/4/6
f 8/4/6 11/10/6 6/12/6
f 6/12/6 12/11/6 2/13/6
f 16/11/6 15/10/6 13/7/6
f 12/14/1 11/5/1 16/6/1
f 11/14/4 10/5/4 15/6/4
f 10/14/3 9/5/3 14/6/3
o Wiggler
v -0.025000 -0.000000 0.025000
v -0.050000 0.200000 0.050000
v -0.025000 -0.000000 -0.025000
v -0.050000 0.200000 -0.050000
v 0.025000 -0.000000 0.025000
v 0.050000 0.200000 0.050000
v 0.025000 -0.000000 -0.025000
v 0.050000 0.200000 -0.050000
v -0.025000 0.250000 0.025000
v -0.025000 0.250000 -0.025000
v 0.025000 0.250000 -0.025000
v 0.025000 0.250000 0.025000
vt 0.562500 0.687500
vt 0.687500 0.000000
vt 0.875000 0.000000
vt 0.593750 0.687500
vt 0.562500 0.718750
vt 0.000000 0.000000
vt 1.000000 0.687500
vt 0.875000 0.875000
vt 0.687500 0.875000
vt 1.000000 1.000000
vt 0.875000 1.000000
vt 1.000000 0.718750
vt 0.968750 0.687500
vt 1.000000 0.875000
vn -0.992300 -0.124000 0.000000
vn 0.000000 -0.124000 -0.992300
vn 0.992300 -0.124000 0.000000
vn 0.000000 -0.124000 0.992300
vn 0.000000 -1.000000 0.000000
vn 0.000000 0.447200 0.894400
vn 0.000000 1.000000 0.000000
vn 0.894400 0.447200 0.000000
vn 0.000000 0.447200 -0.894400
vn -0.894400 0.447200 0.000000
s off
f 20/15/7 19/16/7 17/17/7
f 24/18/8 23/16/8 19/17/8
f 22/19/9 21/16/9 23/17/9
f 18/15/10 17/16/10 21/17/10
f 19/20/11 23/20/11 21/20/11
f 22/21/12 28/22/12 25/23/12
f 27/24/13 26/25/13 25/22/13
f 24/26/14 27/22/14 28/23/14
f 20/27/15 26/22/15 27/23/15
f 18/21/16 25/22/16 26/23/16
f 18/21/7 20/15/7 17/17/7
f 20/27/8 24/18/8 19/17/8
f 24/26/9 22/19/9 23/17/9
f 22/21/10 18/15/10 21/17/10
f 17/20/11 19/20/11 21/20/11
f 18/15/12 22/21/12 25/23/12
f 28/28/13 27/24/13 25/22/13
f 22/19/14 24/26/14 28/23/14
f 24/18/15 20/27/15 27/23/15
f 20/15/16 18/21/16 26/23/16
