# Blender v2.74 (sub 0) OBJ File: 'oldtardis.blend'
# www.blender.org
o topWide
v -0.500000 1.768750 0.625000
v 0.500000 1.768750 0.625000
v 0.500000 1.956250 0.625000
v -0.500000 1.956250 0.625000
v 0.500000 1.768750 0.500000
v -0.500000 1.768750 0.500000
v -0.500000 1.956250 0.500000
v 0.500000 1.956250 0.500000
v 0.437500 0.075103 0.437500
v 0.437500 0.075103 0.562500
v 0.437500 1.962500 0.562500
v 0.437500 1.962500 0.437500
v 0.562500 0.075103 0.562500
v 0.562500 0.075103 0.437500
v 0.562500 1.962500 0.437500
v 0.562500 1.962500 0.562500
v 0.500000 1.768750 -0.625000
v -0.500000 1.768750 -0.625000
v -0.500000 1.956250 -0.625000
v 0.500000 1.956250 -0.625000
v -0.500000 1.768750 -0.500000
v 0.500000 1.768750 -0.500000
v 0.500000 1.956250 -0.500000
v -0.500000 1.956250 -0.500000
v 0.437500 0.075103 -0.437500
v 0.562500 0.075103 -0.437500
v 0.562500 1.962500 -0.437500
v 0.437500 1.962500 -0.437500
v 0.562500 0.075103 -0.562500
v 0.437500 0.075103 -0.562500
v 0.437500 1.962500 -0.562500
v 0.562500 1.962500 -0.562500
v 0.062500 2.150000 -0.062500
v -0.062500 2.150000 -0.062500
v -0.062500 2.282814 -0.062500
v 0.062500 2.282814 -0.062500
v -0.062500 2.150000 0.062500
v 0.062500 2.150000 0.062500
v 0.062500 2.282814 0.062500
v -0.062500 2.282814 0.062500
v 0.031250 0.085554 -0.531250
v -0.031250 0.085554 -0.531250
v -0.031250 1.923849 -0.531250
v 0.031250 1.923849 -0.531250
v -0.031250 0.085554 -0.468750
v 0.031250 0.085554 -0.468750
v 0.031250 1.923849 -0.468750
v -0.031250 1.923849 -0.468750
v 0.625000 1.768750 0.500000
v 0.625000 1.768750 -0.500000
v 0.625000 1.956250 -0.500000
v 0.625000 1.956250 0.500000
v 0.500000 1.768750 -0.500000
v 0.500000 1.768750 0.500000
v 0.075000 2.282814 -0.075000
v -0.075000 2.282814 -0.075000
v -0.437500 0.075103 0.437500
v -0.562500 0.075103 0.437500
v -0.562500 1.962500 0.437500
v -0.437500 1.962500 0.437500
v -0.562500 0.075103 0.562500
v -0.437500 0.075103 0.562500
v -0.437500 1.962500 0.562500
v -0.562500 1.962500 0.562500
v 0.500000 0.084856 -0.500000
v -0.500000 0.084856 -0.500000
v -0.500000 1.772339 -0.500000
v 0.500000 1.772339 -0.500000
v -0.500000 0.084856 0.500000
v 0.500000 0.084856 0.500000
v 0.500000 1.772339 0.500000
v -0.500000 1.772339 0.500000
v 0.625000 -0.037500 -0.625000
v -0.625000 -0.037500 -0.625000
v -0.625000 0.087500 -0.625000
v 0.625000 0.087500 -0.625000
v -0.625000 -0.037500 0.625000
v 0.625000 -0.037500 0.625000
v 0.625000 0.087500 0.625000
v -0.625000 0.087500 0.625000
v -0.625000 1.768750 -0.500000
v -0.625000 1.768750 0.500000
v -0.625000 1.956250 0.500000
v -0.625000 1.956250 -0.500000
v -0.500000 1.768750 0.500000
v -0.500000 1.768750 -0.500000
v 0.075000 2.294418 0.075000
v -0.075000 2.294418 -0.075000
v -0.075000 2.282814 0.075000
v -0.075000 2.294418 0.075000
v -0.500000 2.004382 -0.500000
v 0.500000 2.004382 -0.500000
v 0.075000 2.294418 -0.075000
v 0.075000 2.282814 0.075000
v 0.500000 2.004382 0.500000
v -0.500000 2.004382 0.500000
v 0.375000 2.025000 -0.375000
v -0.375000 2.025000 -0.375000
v -0.375000 2.093614 -0.375000
v 0.375000 2.093614 -0.375000
v -0.375000 2.025000 0.375000
v 0.375000 2.025000 0.375000
v 0.375000 2.093614 0.375000
v -0.375000 2.093614 0.375000
v -0.437500 0.075103 -0.437500
v -0.437500 0.075103 -0.562500
v -0.437500 1.962500 -0.562500
v -0.437500 1.962500 -0.437500
v -0.562500 0.075103 -0.562500
v -0.562500 0.075103 -0.437500
v -0.562500 1.962500 -0.437500
v -0.562500 1.962500 -0.562500
v -0.500000 0.087500 -0.500000
v -0.500000 0.087500 0.500000
v 0.500000 0.087500 -0.500000
v 0.500000 0.087500 0.500000
v -0.030263 2.312619 0.030263
v 0.030263 2.312619 -0.030263
v 0.030263 2.312619 0.030263
v -0.030263 2.312619 -0.030263
vt 0.980469 0.847656
vt 0.980469 0.902344
vt 0.699219 0.902344
vt 0.980469 0.917969
vt 0.699219 0.917969
vt 0.980469 0.832031
vt 0.699219 0.847656
vt 0.683594 0.902344
vt 0.996094 0.847656
vt 0.996094 0.902344
vt 0.285156 0.042969
vt 0.285156 0.433594
vt 0.269531 0.433594
vt 0.246094 0.042969
vt 0.246094 0.433594
vt 0.230469 0.433594
vt 0.195312 0.851562
vt 0.140625 0.851562
vt 0.140625 0.796875
vt 0.000000 0.996094
vt 0.042969 0.953125
vt 0.300781 0.953125
vt 0.230469 0.039062
vt 0.230469 0.429688
vt 0.214844 0.429688
vt 0.261719 0.042969
vt 0.261719 0.433594
vt 0.980469 0.691406
vt 0.980469 0.742188
vt 0.699219 0.742188
vt 0.980469 0.757812
vt 0.699219 0.757812
vt 0.980469 0.675781
vt 0.699219 0.691406
vt 0.683594 0.691406
vt 0.996094 0.691406
vt 0.996094 0.742188
vt 0.035156 0.042969
vt 0.035156 0.433594
vt 0.019531 0.433594
vt 1.000000 0.042969
vt 1.000000 0.437500
vt 0.980469 0.437500
vt 0.195312 0.796875
vt -0.000000 0.992188
vt 0.976562 0.042969
vt 0.976562 0.433594
vt 0.960938 0.433594
vt 0.019531 0.042969
vt -0.000000 0.433594
vt 0.996094 0.449219
vt 0.996094 0.574219
vt 0.878906 0.574219
vt 0.761719 0.449219
vt 0.761719 0.574219
vt 0.644531 0.574219
vt 0.011719 0.453125
vt 0.000000 0.441406
vt 0.148438 0.441406
vt 0.527344 0.449219
vt 0.644531 0.449219
vt 0.878906 0.449219
vt 0.875000 0.042969
vt 0.875000 0.437500
vt 0.867188 0.437500
vt 0.875000 0.433594
vt 0.867188 0.433594
vt 0.980469 0.929688
vt 0.980469 0.980469
vt 0.699219 0.980469
vt 0.246094 0.593750
vt 0.246094 0.621094
vt 0.000000 0.621094
vt 0.980469 0.914062
vt 0.699219 0.929688
vt 1.000000 0.593750
vt 1.000000 0.621094
vt 0.750000 0.621094
vt 0.125000 0.464844
vt 0.136719 0.453125
vt 0.136719 0.578125
vt 0.531250 0.042969
vt 0.531250 0.437500
vt 0.515625 0.437500
vt 0.496094 0.042969
vt 0.496094 0.437500
vt 0.472656 0.437500
vt 0.335938 0.992188
vt 0.476562 0.042969
vt 0.476562 0.433594
vt 0.460938 0.433594
vt 0.519531 0.042969
vt 0.519531 0.437500
vt 0.500000 0.437500
vt 0.976562 0.039062
vt 0.976562 0.437500
vt 0.769531 0.437500
vt 0.476562 0.039062
vt 0.476562 0.437500
vt 0.269531 0.437500
vt 0.250000 0.875000
vt 0.250000 1.000000
vt 0.125000 1.000000
vt 0.023438 0.039062
vt 0.230469 0.437500
vt 0.726562 0.039062
vt 0.726562 0.437500
vt 1.000000 0.000000
vt 1.000000 0.027344
vt 0.746094 0.027344
vt 0.496094 -0.000000
vt 0.496094 0.027344
vt 0.246094 0.027344
vt 0.367188 0.972656
vt 0.390625 0.949219
vt 0.640625 0.949219
vt 0.636719 0.699219
vt 0.636719 0.953125
vt 0.398438 0.953125
vt 0.000000 0.000000
vt 0.246094 0.000000
vt 0.746094 0.000000
vt 0.699219 0.769531
vt 0.980469 0.769531
vt 0.980469 0.820312
vt 0.683594 0.980469
vt 0.027344 0.464844
vt 0.054688 0.492188
vt 0.054688 0.535156
vt 0.980469 0.753906
vt 0.750000 0.593750
vt 0.500000 0.621094
vt 0.500000 0.593750
vt 0.699219 0.820312
vt 0.683594 0.820312
vt 0.343750 0.996094
vt 0.300781 0.695312
vt 0.011719 0.578125
vt 0.000000 0.589844
vt 0.980469 0.996094
vt 0.699219 0.996094
vt 1.000000 0.636719
vt 0.750000 0.636719
vt 0.500000 0.636719
vt 0.246094 0.636719
vt 0.335938 0.656250
vt -0.000000 0.636719
vt 0.785156 0.042969
vt 0.785156 0.433594
vt 0.769531 0.433594
vt 0.769531 0.042969
vt 0.750000 0.437500
vt 0.343750 0.652344
vt 0.042969 0.695312
vt 0.535156 0.042969
vt 0.535156 0.437500
vt 0.750000 0.042969
vt 0.730469 0.437500
vt 0.664062 0.679688
vt 0.640625 0.703125
vt 0.390625 0.703125
vt 0.664062 0.972656
vt 0.367188 0.679688
vt -0.000000 0.656250
vt 0.148438 0.589844
vt 0.000000 0.652344
vt 0.027344 0.566406
vt 0.015625 0.578125
vt 0.015625 0.453125
vt 0.980469 0.835938
vt 0.699219 0.835938
vt 0.996094 0.929688
vt 0.996094 0.980469
vt 0.996094 0.769531
vt 0.996094 0.820312
vt 0.125000 0.566406
vt 0.054688 0.496094
vt 0.093750 0.496094
vt 0.125000 0.562500
vt 0.097656 0.535156
vt 0.027344 0.562500
vt 0.097656 0.492188
vt 0.699219 0.832031
vt 0.683594 0.847656
vt 0.269531 0.042969
vt 0.230469 0.042969
vt 0.214844 0.039062
vt 0.699219 0.675781
vt 0.683594 0.742188
vt 0.980469 0.042969
vt 0.960938 0.042969
vt -0.000000 0.042969
vt 0.527344 0.574219
vt 0.867188 0.042969
vt 0.000000 0.593750
vt 0.699219 0.914062
vt 0.515625 0.042969
vt 0.472656 0.042969
vt 0.460938 0.042969
vt 0.500000 0.042969
vt 0.769531 0.039062
vt 0.269531 0.039062
vt 0.125000 0.875000
vt 0.023438 0.437500
vt 0.519531 0.039062
vt 0.398438 0.699219
vt 0.000000 0.027344
vt 0.683594 0.929688
vt 0.699219 0.753906
vt 0.683594 0.769531
vt 0.730469 0.042969
vt 0.093750 0.535156
vn 0.000000 0.000000 1.000000
vn 0.000000 1.000000 0.000000
vn 0.000000 -1.000000 0.000000
vn -1.000000 0.000000 0.000000
vn 1.000000 0.000000 0.000000
vn -0.162700 0.986700 0.000000
vn 0.000000 0.000000 -1.000000
vn -0.177600 0.984100 0.000000
vn 0.000000 0.984100 -0.177600
vn -0.376800 0.926300 0.000000
vn 0.000000 0.986700 -0.162700
vn 0.177600 0.984100 0.000000
vn 0.162700 0.986700 0.000000
vn 0.000000 0.984100 0.177600
vn 0.000000 0.986700 0.162700
vn 0.376800 0.926300 0.000000
vn 0.000000 0.926300 -0.376800
vn 0.000000 0.926300 0.376800
s off
f 2/1/1 3/2/1 4/3/1
f 3/2/2 8/4/2 7/5/2
f 5/6/3 2/1/3 1/7/3
f 1/7/4 4/3/4 7/8/4
f 5/9/5 8/10/5 3/2/5
f 10/11/4 11/12/4 12/13/4
f 14/14/5 15/15/5 16/16/5
f 11/17/2 16/18/2 15/19/2
f 96/20/6 101/21/6 98/22/6
f 9/23/7 12/24/7 15/25/7
f 13/26/1 16/27/1 11/15/1
f 18/28/7 19/29/7 20/30/7
f 19/29/2 24/31/2 23/32/2
f 21/33/3 18/28/3 17/34/3
f 22/35/5 17/34/5 20/30/5
f 21/36/4 24/37/4 19/29/4
f 26/38/1 27/39/1 28/40/1
f 30/41/7 31/42/7 32/43/7
f 27/18/2 32/19/2 31/44/2
f 104/45/8 37/18/8 34/17/8
f 25/46/4 28/47/4 31/48/4
f 29/49/5 32/40/5 27/50/5
f 34/51/7 35/52/7 36/53/7
f 38/54/1 39/55/1 40/56/1
f 35/57/3 56/58/3 55/59/3
f 38/60/5 33/61/5 36/56/5
f 37/62/4 40/53/4 35/55/4
f 42/63/7 43/64/7 44/65/7
f 41/63/5 44/64/5 47/65/5
f 45/63/4 48/66/4 43/67/4
f 50/68/5 51/69/5 52/70/5
f 23/71/5 92/72/5 95/73/5
f 53/74/3 50/68/3 49/75/3
f 24/76/7 91/77/7 92/78/7
f 55/79/5 93/80/5 87/81/5
f 58/82/7 59/83/7 60/84/7
f 62/85/1 63/86/1 64/87/1
f 59/19/2 64/44/2 63/17/2
f 99/88/9 34/17/9 33/44/9
f 57/89/5 60/90/5 63/91/5
f 61/92/4 64/93/4 59/94/4
f 66/95/7 67/96/7 68/97/7
f 70/98/1 71/99/1 72/100/1
f 67/101/2 72/102/2 71/103/2
f 70/104/5 65/23/5 68/105/5
f 69/106/4 72/107/4 67/93/4
f 74/108/7 75/109/7 76/110/7
f 78/111/1 79/112/1 80/113/1
f 75/114/2 113/115/2 115/116/2
f 77/117/3 74/118/3 73/119/3
f 78/120/5 73/121/5 76/113/5
f 77/122/4 80/110/4 75/112/4
f 81/123/4 82/124/4 83/125/4
f 49/75/1 52/70/1 8/126/1
f 90/127/10 117/128/10 120/129/10
f 85/130/3 82/124/3 81/123/3
f 7/131/4 96/78/4 91/132/4
f 8/133/1 95/132/1 96/72/1
f 81/123/7 84/134/7 24/135/7
f 91/136/11 98/22/11 97/137/11
f 40/138/3 89/139/3 56/58/3
f 51/69/2 23/140/2 8/141/2
f 98/77/7 99/142/7 100/143/7
f 102/132/1 103/144/1 104/145/1
f 100/146/12 33/44/12 38/19/12
f 97/72/5 100/145/5 103/147/5
f 101/78/4 104/143/4 99/144/4
f 106/148/5 107/149/5 108/150/5
f 110/151/4 111/97/4 112/152/4
f 107/19/2 112/44/2 111/17/2
f 92/153/13 97/137/13 102/154/13
f 105/155/1 108/156/1 111/93/1
f 109/157/7 112/152/7 107/158/7
f 79/159/2 116/160/2 114/161/2
f 76/162/2 115/116/2 116/160/2
f 80/163/2 114/161/2 113/115/2
f 103/164/14 38/19/14 37/18/14
f 36/80/3 55/59/3 94/165/3
f 39/81/3 94/165/3 89/139/3
f 95/166/15 102/154/15 101/21/15
f 89/167/4 90/168/4 88/169/4
f 83/125/2 7/170/2 24/171/2
f 53/172/7 23/173/7 51/69/7
f 85/174/1 7/175/1 83/125/1
f 94/176/1 87/81/1 90/168/1
f 56/127/7 88/169/7 93/80/7
f 120/129/2 117/177/2 119/178/2
f 87/79/16 93/179/16 118/180/16
f 88/181/17 120/129/17 118/180/17
f 87/79/18 119/182/18 117/128/18
f 1/7/1 2/1/1 4/3/1
f 4/3/2 3/2/2 7/5/2
f 6/183/3 5/6/3 1/7/3
f 6/184/4 1/7/4 7/8/4
f 2/1/5 5/9/5 3/2/5
f 9/185/4 10/11/4 12/13/4
f 13/186/5 14/14/5 16/16/5
f 12/44/2 11/17/2 15/19/2
f 91/136/6 96/20/6 98/22/6
f 14/187/7 9/23/7 15/25/7
f 10/14/1 13/26/1 11/15/1
f 17/34/7 18/28/7 20/30/7
f 20/30/2 19/29/2 23/32/2
f 22/188/3 21/33/3 17/34/3
f 23/189/5 22/35/5 20/30/5
f 18/28/4 21/36/4 19/29/4
f 25/49/1 26/38/1 28/40/1
f 29/190/7 30/41/7 32/43/7
f 28/17/2 27/18/2 31/44/2
f 99/88/8 104/45/8 34/17/8
f 30/191/4 25/46/4 31/48/4
f 26/192/5 29/49/5 27/50/5
f 33/62/7 34/51/7 36/53/7
f 37/61/1 38/54/1 40/56/1
f 36/80/3 35/57/3 55/59/3
f 39/193/5 38/60/5 36/56/5
f 34/54/4 37/62/4 35/55/4
f 41/194/7 42/63/7 44/65/7
f 46/194/5 41/63/5 47/65/5
f 42/194/4 45/63/4 43/67/4
f 49/75/5 50/68/5 52/70/5
f 8/195/5 23/71/5 95/73/5
f 54/196/3 53/74/3 49/75/3
f 23/131/7 24/76/7 92/78/7
f 94/176/5 55/79/5 87/81/5
f 57/197/7 58/82/7 60/84/7
f 61/198/1 62/85/1 64/87/1
f 60/18/2 59/19/2 63/17/2
f 100/146/9 99/88/9 33/44/9
f 62/199/5 57/89/5 63/91/5
f 58/200/4 61/92/4 59/94/4
f 65/201/7 66/95/7 68/97/7
f 69/202/1 70/98/1 72/100/1
f 68/203/2 67/101/2 71/103/2
f 71/204/5 70/104/5 68/105/5
f 66/205/4 69/106/4 67/93/4
f 73/122/7 74/108/7 76/110/7
f 77/121/1 78/111/1 80/113/1
f 76/162/2 75/114/2 115/116/2
f 78/206/3 77/117/3 73/119/3
f 79/207/5 78/120/5 76/113/5
f 74/111/4 77/122/4 75/112/4
f 84/134/4 81/123/4 83/125/4
f 54/208/1 49/75/1 8/126/1
f 88/181/10 90/127/10 120/129/10
f 86/209/3 85/130/3 81/123/3
f 24/133/4 7/131/4 91/132/4
f 7/71/1 8/133/1 96/72/1
f 86/210/7 81/123/7 24/135/7
f 92/153/11 91/136/11 97/137/11
f 35/57/3 40/138/3 56/58/3
f 52/70/2 51/69/2 8/141/2
f 97/78/7 98/77/7 100/143/7
f 101/72/1 102/132/1 104/145/1
f 103/164/12 100/146/12 38/19/12
f 102/73/5 97/72/5 103/147/5
f 98/132/4 101/78/4 99/144/4
f 105/151/5 106/148/5 108/150/5
f 109/157/4 110/151/4 112/152/4
f 108/18/2 107/19/2 111/17/2
f 95/166/13 92/153/13 102/154/13
f 110/92/1 105/155/1 111/93/1
f 106/211/7 109/157/7 107/158/7
f 80/163/2 79/159/2 114/161/2
f 79/159/2 76/162/2 116/160/2
f 75/114/2 80/163/2 113/115/2
f 104/45/14 103/164/14 37/18/14
f 39/81/3 36/80/3 94/165/3
f 40/138/3 39/81/3 89/139/3
f 96/20/15 95/166/15 101/21/15
f 56/127/4 89/167/4 88/169/4
f 84/134/2 83/125/2 24/171/2
f 50/68/7 53/172/7 51/69/7
f 82/124/1 85/174/1 83/125/1
f 89/167/1 94/176/1 90/168/1
f 55/79/7 56/127/7 93/80/7
f 118/212/2 120/129/2 119/178/2
f 119/182/16 87/79/16 118/180/16
f 93/179/17 88/181/17 118/180/17
f 90/127/18 87/79/18 117/128/18
