# Blender v2.74 (sub 0) OBJ File: 'screwbottom.blend'
# www.blender.org
o Cube
v 0.100000 -0.000000 -0.100000
v 0.100000 -0.000000 0.100000
v -0.100000 -0.000000 0.100000
v -0.100000 -0.000000 -0.100000
v 0.150000 0.200000 -0.150000
v 0.150000 0.200000 0.150000
v -0.150000 0.200000 0.150000
v -0.150000 0.200000 -0.150000
v 0.112500 0.200000 -0.112500
v 0.112500 0.200000 0.112500
v -0.112500 0.200000 -0.112500
v -0.112500 0.200000 0.112500
v -0.160000 0.300000 0.150000
v -0.160000 0.300000 -0.150000
v -0.122500 0.300000 0.112500
v -0.122500 0.300000 -0.112500
v 0.150000 0.300000 0.160000
v -0.150000 0.300000 0.160000
v 0.112500 0.300000 0.122500
v -0.112500 0.300000 0.122500
v 0.160000 0.300000 -0.150000
v 0.160000 0.300000 0.150000
v 0.122500 0.300000 -0.112500
v 0.122500 0.300000 0.112500
v 0.150000 0.300000 -0.160000
v -0.150000 0.300000 -0.160000
v 0.112500 0.300000 -0.122500
v -0.112500 0.300000 -0.122500
vt 0.248999 0.501001
vt 0.001001 0.501001
vt 0.001001 0.748999
vt 0.998999 0.001001
vt 0.876001 0.001001
vt 0.876001 0.123999
vt 0.001001 0.251001
vt 0.001001 0.498999
vt 0.248999 0.498999
vt 0.251001 0.001001
vt 0.251001 0.248999
vt 0.498999 0.248999
vt 0.498999 0.251001
vt 0.251001 0.251001
vt 0.251001 0.498999
vt 0.001001 0.001001
vt 0.001001 0.248999
vt 0.248999 0.248999
vt 0.873999 0.751001
vt 0.751001 0.751001
vt 0.751001 0.873999
vt 0.626001 0.751001
vt 0.626001 0.873999
vt 0.748999 0.873999
vt 0.873999 0.626001
vt 0.751001 0.626001
vt 0.751001 0.748999
vt 0.748999 0.001001
vt 0.626001 0.001001
vt 0.626001 0.248999
vt 0.501001 0.751001
vt 0.501001 0.873999
vt 0.623999 0.873999
vt 0.748999 0.623999
vt 0.748999 0.501001
vt 0.501001 0.501001
vt 0.873999 0.001001
vt 0.751001 0.001001
vt 0.751001 0.248999
vt 0.748999 0.748999
vt 0.748999 0.626001
vt 0.501001 0.626001
vt 0.126001 0.876001
vt 0.126001 0.998999
vt 0.248999 0.998999
vt 0.873999 0.251001
vt 0.751001 0.251001
vt 0.751001 0.498999
vt 0.248999 0.873999
vt 0.248999 0.751001
vt 0.001001 0.751001
vt 0.748999 0.251001
vt 0.626001 0.251001
vt 0.626001 0.498999
vt 0.751001 0.501001
vt 0.751001 0.623999
vt 0.873999 0.623999
vt 0.498999 0.748999
vt 0.498999 0.626001
vt 0.251001 0.626001
vt 0.623999 0.251001
vt 0.501001 0.251001
vt 0.501001 0.498999
vt 0.498999 0.623999
vt 0.498999 0.501001
vt 0.251001 0.501001
vt 0.123999 0.876001
vt 0.001001 0.876001
vt 0.001001 0.998999
vt 0.623999 0.248999
vt 0.623999 0.001001
vt 0.501001 0.001001
vt 0.498999 0.873999
vt 0.498999 0.751001
vt 0.251001 0.751001
vt 0.248999 0.748999
vt 0.998999 0.123999
vt 0.248999 0.251001
vt 0.498999 0.001001
vt 0.498999 0.498999
vt 0.248999 0.001001
vt 0.873999 0.873999
vt 0.748999 0.751001
vt 0.873999 0.748999
vt 0.748999 0.248999
vt 0.623999 0.751001
vt 0.501001 0.623999
vt 0.873999 0.248999
vt 0.501001 0.748999
vt 0.248999 0.876001
vt 0.873999 0.498999
vt 0.001001 0.873999
vt 0.748999 0.498999
vt 0.873999 0.501001
vt 0.251001 0.748999
vt 0.623999 0.498999
vt 0.251001 0.623999
vt 0.123999 0.998999
vt 0.501001 0.248999
vt 0.251001 0.873999
vn 0.000000 -1.000000 0.000000
vn 0.705300 0.070500 0.705300
vn 0.970100 -0.242500 0.000000
vn -0.000000 -0.242500 0.970100
vn -0.970100 -0.242500 -0.000000
vn 0.000000 -0.242500 -0.970100
vn 0.705300 0.070500 -0.705300
vn -0.705300 0.070500 -0.705300
vn 0.000000 1.000000 -0.000000
vn 0.995000 0.099500 0.000000
vn -0.995000 -0.099500 -0.000000
vn 0.000000 0.099500 -0.995000
vn -0.000000 -0.099500 0.995000
vn -0.705300 0.070500 0.705300
vn -0.995000 0.099500 -0.000000
vn 0.995000 -0.099500 0.000000
vn -0.000000 0.099500 0.995000
vn 0.000000 -0.099500 -0.995000
s off
f 1/1/1 2/2/1 3/3/1
f 7/4/2 12/5/2 15/6/2
f 5/7/3 6/8/3 2/9/3
f 6/10/4 7/11/4 3/12/4
f 3/13/5 7/14/5 8/15/5
f 1/16/6 4/17/6 8/18/6
f 6/19/7 10/20/7 19/21/7
f 5/22/2 25/23/2 27/24/2
f 5/25/8 9/26/8 23/27/8
f 13/28/9 15/29/9 16/30/9
f 8/31/7 14/32/7 16/33/7
f 11/34/10 16/35/10 15/36/10
f 7/37/11 13/38/11 14/39/11
f 17/40/9 19/41/9 20/42/9
f 7/43/8 18/44/8 20/45/8
f 12/46/12 20/47/12 19/48/12
f 6/49/13 17/50/13 18/51/13
f 21/52/9 23/53/9 24/54/9
f 6/55/14 22/56/14 24/57/14
f 10/58/15 24/59/15 23/60/15
f 5/61/16 21/62/16 22/63/16
f 26/64/9 28/65/9 27/66/9
f 8/67/14 11/68/14 28/69/14
f 11/70/17 9/71/17 27/72/17
f 8/73/18 26/74/18 25/75/18
f 4/76/1 1/1/1 3/3/1
f 13/77/2 7/4/2 15/6/2
f 1/78/3 5/7/3 2/9/3
f 2/79/4 6/10/4 3/12/4
f 4/80/5 3/13/5 8/15/5
f 5/81/6 1/16/6 8/18/6
f 17/82/7 6/19/7 19/21/7
f 9/83/2 5/22/2 27/24/2
f 21/84/8 5/25/8 23/27/8
f 14/85/9 13/28/9 16/30/9
f 11/86/7 8/31/7 16/33/7
f 12/87/10 11/34/10 15/36/10
f 8/88/11 7/37/11 14/39/11
f 18/89/9 17/40/9 20/42/9
f 12/90/8 7/43/8 20/45/8
f 10/91/12 12/46/12 19/48/12
f 7/92/13 6/49/13 18/51/13
f 22/93/9 21/52/9 24/54/9
f 10/94/14 6/55/14 24/57/14
f 9/95/15 10/58/15 23/60/15
f 6/96/16 5/61/16 22/63/16
f 25/97/9 26/64/9 27/66/9
f 26/98/14 8/67/14 28/69/14
f 28/99/17 11/70/17 27/72/17
f 5/100/18 8/73/18 25/75/18
